<svg width="420" height="41" viewBox="0 0 420 41" fill="none" xmlns="http://www.w3.org/2000/svg">
<path d="M95.7729 9.092C95.4089 9.092 95.1242 8.94267 94.9189 8.644C94.7415 8.40133 94.6529 8.07 94.6529 7.65C94.6529 7.07133 94.7975 6.52533 95.0869 6.012C95.3762 5.48933 95.7262 5.07867 96.1369 4.78L96.3329 5.004C95.9875 5.26533 95.7029 5.58267 95.4789 5.956C95.2642 6.32933 95.1569 6.70267 95.1569 7.076C95.1569 7.17867 95.1755 7.26267 95.2129 7.328C95.2502 7.384 95.3155 7.44 95.4089 7.496C95.4742 7.53333 95.6329 7.552 95.8849 7.552C96.0902 7.552 96.2582 7.62667 96.3889 7.776C96.5195 7.916 96.5849 8.084 96.5849 8.28C96.5849 8.532 96.5009 8.73267 96.3329 8.882C96.1649 9.022 95.9782 9.092 95.7729 9.092ZM98.3769 9.092C98.0129 9.092 97.7282 8.94267 97.5229 8.644C97.3455 8.40133 97.2569 8.07 97.2569 7.65C97.2569 7.07133 97.4015 6.52533 97.6909 6.012C97.9802 5.48933 98.3302 5.07867 98.7409 4.78L98.9369 5.004C98.5915 5.26533 98.3069 5.58267 98.0829 5.956C97.8682 6.32933 97.7609 6.70267 97.7609 7.076C97.7609 7.17867 97.7795 7.26267 97.8169 7.328C97.8542 7.384 97.9195 7.44 98.0129 7.496C98.0782 7.53333 98.2369 7.552 98.4889 7.552C98.6942 7.552 98.8622 7.62667 98.9929 7.776C99.1235 7.916 99.1889 8.084 99.1889 8.28C99.1889 8.532 99.1049 8.73267 98.9369 8.882C98.7689 9.022 98.5822 9.092 98.3769 9.092ZM105.108 15.252C104.716 15.252 104.329 15.168 103.946 15C103.573 14.8227 103.246 14.6313 102.966 14.426C102.574 14.1273 102.341 13.978 102.266 13.978C102.08 13.978 101.958 14.1787 101.902 14.58L101.846 15.14H101.524L101.426 10.716H101.762C101.818 11.4067 102.01 12.0693 102.336 12.704C102.672 13.3293 103.088 13.838 103.582 14.23C104.077 14.6127 104.586 14.804 105.108 14.804C105.874 14.804 106.429 14.6173 106.774 14.244C107.129 13.8707 107.306 13.4227 107.306 12.9C107.306 12.4427 107.171 12.0833 106.9 11.822C106.639 11.5607 106.252 11.3273 105.738 11.122L103.61 10.268C102.873 9.96933 102.327 9.58667 101.972 9.12C101.627 8.644 101.454 8.07467 101.454 7.412C101.454 6.516 101.716 5.85333 102.238 5.424C102.761 4.99467 103.414 4.78 104.198 4.78C104.814 4.78 105.496 5.06 106.242 5.62C106.336 5.68533 106.429 5.746 106.522 5.802C106.616 5.84867 106.7 5.872 106.774 5.872C106.933 5.872 107.026 5.76 107.054 5.536L107.11 5.032H107.446L107.586 8.672H107.25C107.101 8 106.863 7.40267 106.536 6.88C106.219 6.35733 105.846 5.95133 105.416 5.662C104.987 5.37267 104.544 5.228 104.086 5.228C103.564 5.228 103.134 5.40067 102.798 5.746C102.462 6.082 102.294 6.55333 102.294 7.16C102.294 7.58 102.402 7.90667 102.616 8.14C102.831 8.37333 103.148 8.574 103.568 8.742L106.27 9.82C106.896 10.072 107.362 10.4313 107.67 10.898C107.988 11.3647 108.146 11.8547 108.146 12.368C108.146 12.8627 108.034 13.3293 107.81 13.768C107.596 14.2067 107.26 14.566 106.802 14.846C106.354 15.1167 105.79 15.252 105.108 15.252ZM112.096 15.168C111.415 15.168 110.929 14.958 110.64 14.538C110.36 14.118 110.22 13.614 110.22 13.026V9.26C110.22 9.148 110.197 9.06867 110.15 9.022C110.103 8.97533 110.024 8.952 109.912 8.952H109.324V8.616H111.228V13.292C111.228 13.7027 111.307 14.0527 111.466 14.342C111.634 14.6313 111.914 14.776 112.306 14.776C112.633 14.776 112.922 14.664 113.174 14.44C113.435 14.2067 113.636 13.894 113.776 13.502C113.925 13.1007 114 12.6573 114 12.172V9.26C114 9.148 113.977 9.06867 113.93 9.022C113.883 8.97533 113.804 8.952 113.692 8.952H113.104V8.616H115.008V14.356C115.008 14.468 115.031 14.5473 115.078 14.594C115.125 14.6407 115.204 14.664 115.316 14.664H115.904V15H114V13.852L113.944 13.838C113.729 14.286 113.463 14.622 113.146 14.846C112.829 15.0607 112.479 15.168 112.096 15.168ZM120.386 15.168C120.013 15.168 119.668 15.042 119.35 14.79C119.033 14.538 118.781 14.2067 118.594 13.796H118.538L117.95 15H117.698V5.676C117.698 5.564 117.675 5.48467 117.628 5.438C117.582 5.39133 117.502 5.368 117.39 5.368H116.662V5.032H118.706V9.652L118.762 9.666C118.902 9.33 119.117 9.04533 119.406 8.812C119.696 8.56933 120.022 8.448 120.386 8.448C120.825 8.448 121.231 8.59733 121.604 8.896C121.987 9.18533 122.29 9.58667 122.514 10.1C122.738 10.6133 122.85 11.1827 122.85 11.808C122.85 12.4333 122.738 13.0027 122.514 13.516C122.29 14.0293 121.987 14.4353 121.604 14.734C121.231 15.0233 120.825 15.168 120.386 15.168ZM120.232 14.776C120.69 14.776 121.035 14.5193 121.268 14.006C121.502 13.4927 121.618 12.76 121.618 11.808C121.618 10.856 121.502 10.1233 121.268 9.61C121.035 9.09667 120.69 8.84 120.232 8.84C119.952 8.84 119.696 8.94267 119.462 9.148C119.229 9.35333 119.042 9.638 118.902 10.002C118.772 10.3567 118.706 10.744 118.706 11.164V12.452C118.706 12.872 118.772 13.264 118.902 13.628C119.042 13.9827 119.229 14.2627 119.462 14.468C119.696 14.6733 119.952 14.776 120.232 14.776ZM124.359 12.396H124.611L125.129 13.502C125.633 14.3887 126.286 14.832 127.089 14.832C127.518 14.832 127.835 14.7293 128.041 14.524C128.255 14.3093 128.363 14.02 128.363 13.656C128.363 13.4413 128.279 13.25 128.111 13.082C127.952 12.9047 127.737 12.7647 127.467 12.662L125.871 12.018C125.367 11.8127 124.97 11.5653 124.681 11.276C124.391 10.9867 124.247 10.618 124.247 10.17C124.247 9.60067 124.424 9.17133 124.779 8.882C125.133 8.59267 125.581 8.448 126.123 8.448C126.393 8.448 126.645 8.49467 126.879 8.588C127.121 8.672 127.322 8.77467 127.481 8.896C127.686 9.04533 127.84 9.12 127.943 9.12C128.064 9.12 128.139 9.036 128.167 8.868L128.195 8.588H128.447V10.716H128.195L127.999 10.226C127.784 9.694 127.499 9.32067 127.145 9.106C126.799 8.89133 126.454 8.784 126.109 8.784C125.763 8.784 125.479 8.87267 125.255 9.05C125.031 9.218 124.919 9.456 124.919 9.764C124.919 10.0347 125.026 10.2587 125.241 10.436C125.465 10.604 125.768 10.7673 126.151 10.926L127.663 11.556C128.111 11.7427 128.447 11.9713 128.671 12.242C128.895 12.5033 129.007 12.872 129.007 13.348C129.007 13.9733 128.829 14.4353 128.475 14.734C128.12 15.0233 127.653 15.168 127.075 15.168C126.729 15.168 126.449 15.1213 126.235 15.028C126.02 14.9347 125.81 14.8087 125.605 14.65C125.521 14.5847 125.437 14.5287 125.353 14.482C125.269 14.4353 125.194 14.412 125.129 14.412C124.905 14.412 124.751 14.5707 124.667 14.888L124.611 15.168H124.359V12.396ZM133.005 15.168C132.464 15.168 131.983 15.0187 131.563 14.72C131.152 14.4213 130.83 14.0153 130.597 13.502C130.373 12.9887 130.261 12.424 130.261 11.808C130.261 11.192 130.378 10.6273 130.611 10.114C130.844 9.60067 131.166 9.19467 131.577 8.896C131.997 8.59733 132.473 8.448 133.005 8.448C133.434 8.448 133.808 8.54133 134.125 8.728C134.442 8.90533 134.685 9.13867 134.853 9.428C135.021 9.708 135.105 9.99267 135.105 10.282C135.105 10.5713 135.03 10.8 134.881 10.968C134.732 11.1267 134.55 11.206 134.335 11.206C134.148 11.206 133.99 11.1453 133.859 11.024C133.738 10.9027 133.677 10.758 133.677 10.59C133.677 10.422 133.724 10.282 133.817 10.17C133.91 10.058 134.022 9.98333 134.153 9.946C134.302 9.89933 134.377 9.81533 134.377 9.694C134.377 9.582 134.326 9.456 134.223 9.316C134.13 9.176 133.98 9.05467 133.775 8.952C133.57 8.84 133.313 8.784 133.005 8.784C132.417 8.784 132.016 9.036 131.801 9.54C131.596 10.044 131.493 10.8 131.493 11.808C131.493 12.816 131.596 13.572 131.801 14.076C132.006 14.58 132.408 14.832 133.005 14.832C133.574 14.832 134.013 14.6313 134.321 14.23C134.629 13.8287 134.816 13.3573 134.881 12.816H135.217C135.189 13.1987 135.091 13.572 134.923 13.936C134.755 14.2907 134.508 14.5847 134.181 14.818C133.854 15.0513 133.462 15.168 133.005 15.168ZM136.219 14.664H136.807C136.919 14.664 136.998 14.6407 137.045 14.594C137.091 14.5473 137.115 14.468 137.115 14.356V9.26C137.115 9.148 137.091 9.06867 137.045 9.022C136.998 8.97533 136.919 8.952 136.807 8.952H136.219V8.616H138.123V10.016L138.179 10.03C138.375 9.54467 138.627 9.162 138.935 8.882C139.252 8.59267 139.588 8.448 139.943 8.448C140.297 8.448 140.587 8.55067 140.811 8.756C141.035 8.96133 141.147 9.24133 141.147 9.596C141.147 9.80133 141.072 10.002 140.923 10.198C140.783 10.394 140.601 10.492 140.377 10.492C140.199 10.492 140.05 10.4453 139.929 10.352C139.807 10.2587 139.747 10.128 139.747 9.96C139.747 9.764 139.84 9.596 140.027 9.456C140.111 9.4 140.171 9.34867 140.209 9.302C140.255 9.25533 140.279 9.19467 140.279 9.12C140.279 9.036 140.237 8.97067 140.153 8.924C140.078 8.868 139.971 8.84 139.831 8.84C139.541 8.84 139.261 8.98 138.991 9.26C138.729 9.54 138.519 9.904 138.361 10.352C138.202 10.8 138.123 11.2667 138.123 11.752V14.356C138.123 14.468 138.146 14.5473 138.193 14.594C138.239 14.6407 138.319 14.664 138.431 14.664H139.019V15H136.219V14.664ZM143.277 6.88C143.071 6.88 142.899 6.81 142.759 6.67C142.619 6.53 142.549 6.35733 142.549 6.152C142.549 5.93733 142.619 5.76467 142.759 5.634C142.899 5.494 143.071 5.424 143.277 5.424C143.491 5.424 143.664 5.494 143.795 5.634C143.935 5.76467 144.005 5.93733 144.005 6.152C144.005 6.35733 143.935 6.53 143.795 6.67C143.664 6.81 143.491 6.88 143.277 6.88ZM141.961 14.664H142.549C142.661 14.664 142.74 14.6407 142.787 14.594C142.833 14.5473 142.857 14.468 142.857 14.356V9.26C142.857 9.148 142.833 9.06867 142.787 9.022C142.74 8.97533 142.661 8.952 142.549 8.952H141.961V8.616H143.865V14.356C143.865 14.468 143.888 14.5473 143.935 14.594C143.981 14.6407 144.061 14.664 144.173 14.664H144.761V15H141.961V14.664ZM149.234 15.168C148.861 15.168 148.515 15.042 148.198 14.79C147.881 14.538 147.629 14.2067 147.442 13.796H147.386L146.798 15H146.546V5.676C146.546 5.564 146.523 5.48467 146.476 5.438C146.429 5.39133 146.35 5.368 146.238 5.368H145.51V5.032H147.554V9.652L147.61 9.666C147.75 9.33 147.965 9.04533 148.254 8.812C148.543 8.56933 148.87 8.448 149.234 8.448C149.673 8.448 150.079 8.59733 150.452 8.896C150.835 9.18533 151.138 9.58667 151.362 10.1C151.586 10.6133 151.698 11.1827 151.698 11.808C151.698 12.4333 151.586 13.0027 151.362 13.516C151.138 14.0293 150.835 14.4353 150.452 14.734C150.079 15.0233 149.673 15.168 149.234 15.168ZM149.08 14.776C149.537 14.776 149.883 14.5193 150.116 14.006C150.349 13.4927 150.466 12.76 150.466 11.808C150.466 10.856 150.349 10.1233 150.116 9.61C149.883 9.09667 149.537 8.84 149.08 8.84C148.8 8.84 148.543 8.94267 148.31 9.148C148.077 9.35333 147.89 9.638 147.75 10.002C147.619 10.3567 147.554 10.744 147.554 11.164V12.452C147.554 12.872 147.619 13.264 147.75 13.628C147.89 13.9827 148.077 14.2627 148.31 14.468C148.543 14.6733 148.8 14.776 149.08 14.776ZM155.922 15.168C155.054 15.168 154.354 14.874 153.822 14.286C153.3 13.698 153.038 12.8813 153.038 11.836C153.038 11.2387 153.155 10.6833 153.388 10.17C153.622 9.64733 153.944 9.232 154.354 8.924C154.774 8.60667 155.241 8.448 155.754 8.448C156.324 8.448 156.79 8.602 157.154 8.91C157.518 9.218 157.78 9.61 157.938 10.086C158.106 10.5527 158.19 11.0333 158.19 11.528C158.19 11.6307 158.158 11.7007 158.092 11.738C158.027 11.766 157.915 11.78 157.756 11.78H154.27C154.27 12.7133 154.401 13.4553 154.662 14.006C154.933 14.5567 155.372 14.832 155.978 14.832C156.408 14.832 156.809 14.6687 157.182 14.342C157.565 14.0153 157.808 13.5067 157.91 12.816H158.246C158.19 13.4973 157.952 14.062 157.532 14.51C157.122 14.9487 156.585 15.168 155.922 15.168ZM156.986 11.444C156.986 10.6973 156.888 10.0673 156.692 9.554C156.496 9.04067 156.174 8.784 155.726 8.784C155.25 8.784 154.886 9.04533 154.634 9.568C154.392 10.0813 154.27 10.7067 154.27 11.444H156.986ZM160.066 8.868C160.411 8.60667 160.691 8.28933 160.906 7.916C161.13 7.54267 161.242 7.16933 161.242 6.796C161.242 6.69333 161.223 6.614 161.186 6.558C161.148 6.49267 161.083 6.432 160.99 6.376C160.924 6.33867 160.766 6.32 160.514 6.32C160.308 6.32 160.14 6.25 160.01 6.11C159.879 5.96067 159.814 5.788 159.814 5.592C159.814 5.34 159.898 5.144 160.066 5.004C160.234 4.85467 160.42 4.78 160.626 4.78C160.99 4.78 161.274 4.92933 161.48 5.228C161.657 5.47067 161.746 5.802 161.746 6.222C161.746 6.80067 161.601 7.35133 161.312 7.874C161.022 8.38733 160.672 8.79333 160.262 9.092L160.066 8.868ZM162.67 8.868C163.015 8.60667 163.295 8.28933 163.51 7.916C163.734 7.54267 163.846 7.16933 163.846 6.796C163.846 6.69333 163.827 6.614 163.79 6.558C163.752 6.49267 163.687 6.432 163.594 6.376C163.528 6.33867 163.37 6.32 163.118 6.32C162.912 6.32 162.744 6.25 162.614 6.11C162.483 5.96067 162.418 5.788 162.418 5.592C162.418 5.34 162.502 5.144 162.67 5.004C162.838 4.85467 163.024 4.78 163.23 4.78C163.594 4.78 163.878 4.92933 164.084 5.228C164.261 5.47067 164.35 5.802 164.35 6.222C164.35 6.80067 164.205 7.35133 163.916 7.874C163.626 8.38733 163.276 8.79333 162.866 9.092L162.67 8.868Z" fill="#FFAE2B"/>
<path d="M215.036 34.552H216.044C216.296 34.552 216.422 34.426 216.422 34.174V25.858C216.422 25.7273 216.389 25.634 216.324 25.578C216.268 25.5127 216.175 25.48 216.044 25.48H215.036V25.032H220.16C220.935 25.032 221.644 25.242 222.288 25.662C222.932 26.0727 223.441 26.6513 223.814 27.398C224.197 28.1353 224.388 28.98 224.388 29.932C224.388 30.884 224.197 31.7473 223.814 32.522C223.441 33.2967 222.927 33.9033 222.274 34.342C221.63 34.7807 220.925 35 220.16 35H215.036V34.552ZM220.104 34.552C220.757 34.552 221.294 34.3327 221.714 33.894C222.134 33.446 222.437 32.8767 222.624 32.186C222.811 31.486 222.904 30.7347 222.904 29.932C222.904 28.6813 222.675 27.6267 222.218 26.768C221.77 25.9093 221.065 25.48 220.104 25.48H218.088C217.957 25.48 217.859 25.5127 217.794 25.578C217.738 25.634 217.71 25.7273 217.71 25.858V34.174C217.71 34.426 217.836 34.552 218.088 34.552H220.104ZM227.556 35.168C227.061 35.168 226.632 35.0467 226.268 34.804C225.913 34.5613 225.736 34.132 225.736 33.516C225.736 33.04 225.857 32.6667 226.1 32.396C226.342 32.1253 226.622 31.934 226.94 31.822C227.266 31.7007 227.658 31.598 228.116 31.514L229.404 31.276V30.086C229.404 29.218 228.97 28.784 228.102 28.784C227.784 28.784 227.495 28.868 227.234 29.036C226.972 29.1947 226.842 29.3767 226.842 29.582C226.842 29.6753 226.856 29.7453 226.884 29.792C226.902 29.82 226.93 29.848 226.968 29.876C227.014 29.904 227.056 29.9227 227.094 29.932C227.262 29.9787 227.388 30.044 227.472 30.128C227.565 30.212 227.612 30.3287 227.612 30.478C227.612 30.674 227.551 30.814 227.43 30.898C227.318 30.982 227.173 31.024 226.996 31.024C226.79 31.024 226.604 30.9447 226.436 30.786C226.268 30.6273 226.184 30.3987 226.184 30.1C226.184 29.7547 226.277 29.456 226.464 29.204C226.66 28.952 226.907 28.7653 227.206 28.644C227.514 28.5133 227.826 28.448 228.144 28.448C228.76 28.448 229.292 28.6113 229.74 28.938C230.188 29.2553 230.412 29.7547 230.412 30.436V33.88C230.412 34.3467 230.556 34.58 230.846 34.58C231.079 34.58 231.247 34.4447 231.35 34.174C231.452 33.9033 231.504 33.572 231.504 33.18H231.756C231.756 33.74 231.672 34.2113 231.504 34.594C231.345 34.9767 231.056 35.168 230.636 35.168C230.234 35.168 229.931 35.0513 229.726 34.818C229.53 34.5753 229.422 34.244 229.404 33.824L229.334 33.796C229.194 34.1227 228.965 34.4353 228.648 34.734C228.34 35.0233 227.976 35.168 227.556 35.168ZM227.78 34.664C228.2 34.664 228.526 34.5007 228.76 34.174C229.002 33.838 229.217 33.4133 229.404 32.9V31.57L228.186 31.836C227.738 31.9293 227.411 32.116 227.206 32.396C227.01 32.6667 226.912 33.054 226.912 33.558C226.912 33.9873 227 34.2813 227.178 34.44C227.355 34.5893 227.556 34.664 227.78 34.664ZM234.894 35.168C234.474 35.168 234.124 35.0187 233.844 34.72C233.573 34.4213 233.438 34.0153 233.438 33.502V29.008H232.402V28.616H232.71C233.13 28.616 233.456 28.392 233.69 27.944C233.932 27.4867 234.054 26.9827 234.054 26.432V25.928H234.446V28.616H236.182V29.008H234.446V33.572C234.446 33.852 234.502 34.0853 234.614 34.272C234.726 34.4587 234.917 34.552 235.188 34.552C235.85 34.552 236.182 33.992 236.182 32.872H236.434C236.434 33.4973 236.34 34.0387 236.154 34.496C235.976 34.944 235.556 35.168 234.894 35.168ZM239.368 35.168C238.874 35.168 238.444 35.0467 238.08 34.804C237.726 34.5613 237.548 34.132 237.548 33.516C237.548 33.04 237.67 32.6667 237.912 32.396C238.155 32.1253 238.435 31.934 238.752 31.822C239.079 31.7007 239.471 31.598 239.928 31.514L241.216 31.276V30.086C241.216 29.218 240.782 28.784 239.914 28.784C239.597 28.784 239.308 28.868 239.046 29.036C238.785 29.1947 238.654 29.3767 238.654 29.582C238.654 29.6753 238.668 29.7453 238.696 29.792C238.715 29.82 238.743 29.848 238.78 29.876C238.827 29.904 238.869 29.9227 238.906 29.932C239.074 29.9787 239.2 30.044 239.284 30.128C239.378 30.212 239.424 30.3287 239.424 30.478C239.424 30.674 239.364 30.814 239.242 30.898C239.13 30.982 238.986 31.024 238.808 31.024C238.603 31.024 238.416 30.9447 238.248 30.786C238.08 30.6273 237.996 30.3987 237.996 30.1C237.996 29.7547 238.09 29.456 238.276 29.204C238.472 28.952 238.72 28.7653 239.018 28.644C239.326 28.5133 239.639 28.448 239.956 28.448C240.572 28.448 241.104 28.6113 241.552 28.938C242 29.2553 242.224 29.7547 242.224 30.436V33.88C242.224 34.3467 242.369 34.58 242.658 34.58C242.892 34.58 243.06 34.4447 243.162 34.174C243.265 33.9033 243.316 33.572 243.316 33.18H243.568C243.568 33.74 243.484 34.2113 243.316 34.594C243.158 34.9767 242.868 35.168 242.448 35.168C242.047 35.168 241.744 35.0513 241.538 34.818C241.342 34.5753 241.235 34.244 241.216 33.824L241.146 33.796C241.006 34.1227 240.778 34.4353 240.46 34.734C240.152 35.0233 239.788 35.168 239.368 35.168ZM239.592 34.664C240.012 34.664 240.339 34.5007 240.572 34.174C240.815 33.838 241.03 33.4133 241.216 32.9V31.57L239.998 31.836C239.55 31.9293 239.224 32.116 239.018 32.396C238.822 32.6667 238.724 33.054 238.724 33.558C238.724 33.9873 238.813 34.2813 238.99 34.44C239.168 34.5893 239.368 34.664 239.592 34.664ZM253.542 35.252C252.702 35.252 252.007 35.0887 251.456 34.762C250.905 34.426 250.499 33.992 250.238 33.46C249.986 32.9187 249.86 32.326 249.86 31.682V25.858C249.86 25.7273 249.827 25.634 249.762 25.578C249.706 25.5127 249.613 25.48 249.482 25.48H248.474V25.032H252.548V25.48H251.526C251.395 25.48 251.297 25.5127 251.232 25.578C251.176 25.634 251.148 25.7273 251.148 25.858V32.06C251.148 32.928 251.358 33.6047 251.778 34.09C252.198 34.566 252.786 34.804 253.542 34.804C254.13 34.804 254.634 34.6873 255.054 34.454C255.474 34.2113 255.791 33.894 256.006 33.502C256.221 33.11 256.328 32.6853 256.328 32.228V26.614C256.328 26.2687 256.244 25.9933 256.076 25.788C255.908 25.5827 255.693 25.48 255.432 25.48H254.942V25.032H258.274V25.48H257.784C257.523 25.48 257.308 25.5827 257.14 25.788C256.972 25.9933 256.888 26.2687 256.888 26.614V32.088C256.888 32.676 256.753 33.2127 256.482 33.698C256.221 34.174 255.833 34.552 255.32 34.832C254.816 35.112 254.223 35.252 253.542 35.252ZM259.51 32.396H259.762L260.28 33.502C260.784 34.3887 261.437 34.832 262.24 34.832C262.669 34.832 262.987 34.7293 263.192 34.524C263.407 34.3093 263.514 34.02 263.514 33.656C263.514 33.4413 263.43 33.25 263.262 33.082C263.103 32.9047 262.889 32.7647 262.618 32.662L261.022 32.018C260.518 31.8127 260.121 31.5653 259.832 31.276C259.543 30.9867 259.398 30.618 259.398 30.17C259.398 29.6007 259.575 29.1713 259.93 28.882C260.285 28.5927 260.733 28.448 261.274 28.448C261.545 28.448 261.797 28.4947 262.03 28.588C262.273 28.672 262.473 28.7747 262.632 28.896C262.837 29.0453 262.991 29.12 263.094 29.12C263.215 29.12 263.29 29.036 263.318 28.868L263.346 28.588H263.598V30.716H263.346L263.15 30.226C262.935 29.694 262.651 29.3207 262.296 29.106C261.951 28.8913 261.605 28.784 261.26 28.784C260.915 28.784 260.63 28.8727 260.406 29.05C260.182 29.218 260.07 29.456 260.07 29.764C260.07 30.0347 260.177 30.2587 260.392 30.436C260.616 30.604 260.919 30.7673 261.302 30.926L262.814 31.556C263.262 31.7427 263.598 31.9713 263.822 32.242C264.046 32.5033 264.158 32.872 264.158 33.348C264.158 33.9733 263.981 34.4353 263.626 34.734C263.271 35.0233 262.805 35.168 262.226 35.168C261.881 35.168 261.601 35.1213 261.386 35.028C261.171 34.9347 260.961 34.8087 260.756 34.65C260.672 34.5847 260.588 34.5287 260.504 34.482C260.42 34.4353 260.345 34.412 260.28 34.412C260.056 34.412 259.902 34.5707 259.818 34.888L259.762 35.168H259.51V32.396ZM268.296 35.168C267.428 35.168 266.728 34.874 266.196 34.286C265.674 33.698 265.412 32.8813 265.412 31.836C265.412 31.2387 265.529 30.6833 265.762 30.17C265.996 29.6473 266.318 29.232 266.728 28.924C267.148 28.6067 267.615 28.448 268.128 28.448C268.698 28.448 269.164 28.602 269.528 28.91C269.892 29.218 270.154 29.61 270.312 30.086C270.48 30.5527 270.564 31.0333 270.564 31.528C270.564 31.6307 270.532 31.7007 270.466 31.738C270.401 31.766 270.289 31.78 270.13 31.78H266.644C266.644 32.7133 266.775 33.4553 267.036 34.006C267.307 34.5567 267.746 34.832 268.352 34.832C268.782 34.832 269.183 34.6687 269.556 34.342C269.939 34.0153 270.182 33.5067 270.284 32.816H270.62C270.564 33.4973 270.326 34.062 269.906 34.51C269.496 34.9487 268.959 35.168 268.296 35.168ZM269.36 31.444C269.36 30.6973 269.262 30.0673 269.066 29.554C268.87 29.0407 268.548 28.784 268.1 28.784C267.624 28.784 267.26 29.0453 267.008 29.568C266.766 30.0813 266.644 30.7067 266.644 31.444H269.36ZM275.972 34.552H276.98C277.232 34.552 277.358 34.426 277.358 34.174V25.858C277.358 25.7273 277.325 25.634 277.26 25.578C277.204 25.5127 277.11 25.48 276.98 25.48H275.972V25.032H280.648C281.301 25.032 281.88 25.144 282.384 25.368C282.897 25.5827 283.294 25.8907 283.574 26.292C283.863 26.684 284.008 27.132 284.008 27.636C284.008 28.1493 283.863 28.6067 283.574 29.008C283.294 29.4093 282.897 29.7267 282.384 29.96C281.88 30.184 281.301 30.296 280.648 30.296H278.646V34.174C278.646 34.3047 278.674 34.4027 278.73 34.468C278.786 34.524 278.884 34.552 279.024 34.552H280.256V35H275.972V34.552ZM280.83 29.848C281.334 29.848 281.74 29.6333 282.048 29.204C282.365 28.7653 282.524 28.2427 282.524 27.636C282.524 27.0293 282.37 26.5207 282.062 26.11C281.754 25.69 281.343 25.48 280.83 25.48H279.024C278.893 25.48 278.795 25.5127 278.73 25.578C278.674 25.634 278.646 25.7273 278.646 25.858V29.848H280.83ZM287.367 35.168C286.853 35.168 286.382 35.0187 285.953 34.72C285.523 34.412 285.183 34.0013 284.931 33.488C284.688 32.9747 284.567 32.4147 284.567 31.808C284.567 31.2013 284.688 30.6413 284.931 30.128C285.183 29.6147 285.523 29.2087 285.953 28.91C286.382 28.602 286.853 28.448 287.367 28.448C287.88 28.448 288.351 28.602 288.781 28.91C289.21 29.2087 289.546 29.6147 289.789 30.128C290.041 30.6413 290.167 31.2013 290.167 31.808C290.167 32.4147 290.041 32.9747 289.789 33.488C289.546 34.0013 289.21 34.412 288.781 34.72C288.351 35.0187 287.88 35.168 287.367 35.168ZM287.367 34.832C287.927 34.832 288.328 34.5707 288.571 34.048C288.813 33.516 288.935 32.7693 288.935 31.808C288.935 30.8467 288.813 30.1047 288.571 29.582C288.328 29.05 287.927 28.784 287.367 28.784C286.807 28.784 286.405 29.05 286.163 29.582C285.92 30.1047 285.799 30.8467 285.799 31.808C285.799 32.7693 285.92 33.516 286.163 34.048C286.405 34.5707 286.807 34.832 287.367 34.832ZM291.232 34.664H291.96C292.072 34.664 292.151 34.6407 292.198 34.594C292.245 34.5473 292.268 34.468 292.268 34.356V25.676C292.268 25.564 292.245 25.4847 292.198 25.438C292.151 25.3913 292.072 25.368 291.96 25.368H291.232V25.032H293.276V34.356C293.276 34.468 293.299 34.5473 293.346 34.594C293.393 34.6407 293.472 34.664 293.584 34.664H294.312V35H291.232V34.664ZM296.461 26.88C296.256 26.88 296.083 26.81 295.943 26.67C295.803 26.53 295.733 26.3573 295.733 26.152C295.733 25.9373 295.803 25.7647 295.943 25.634C296.083 25.494 296.256 25.424 296.461 25.424C296.676 25.424 296.849 25.494 296.979 25.634C297.119 25.7647 297.189 25.9373 297.189 26.152C297.189 26.3573 297.119 26.53 296.979 26.67C296.849 26.81 296.676 26.88 296.461 26.88ZM295.145 34.664H295.733C295.845 34.664 295.925 34.6407 295.971 34.594C296.018 34.5473 296.041 34.468 296.041 34.356V29.26C296.041 29.148 296.018 29.0687 295.971 29.022C295.925 28.9753 295.845 28.952 295.733 28.952H295.145V28.616H297.049V34.356C297.049 34.468 297.073 34.5473 297.119 34.594C297.166 34.6407 297.245 34.664 297.357 34.664H297.945V35H295.145V34.664ZM301.803 35.168C301.261 35.168 300.781 35.0187 300.361 34.72C299.95 34.4213 299.628 34.0153 299.395 33.502C299.171 32.9887 299.059 32.424 299.059 31.808C299.059 31.192 299.175 30.6273 299.409 30.114C299.642 29.6007 299.964 29.1947 300.375 28.896C300.795 28.5973 301.271 28.448 301.803 28.448C302.232 28.448 302.605 28.5413 302.923 28.728C303.24 28.9053 303.483 29.1387 303.651 29.428C303.819 29.708 303.903 29.9927 303.903 30.282C303.903 30.5713 303.828 30.8 303.679 30.968C303.529 31.1267 303.347 31.206 303.133 31.206C302.946 31.206 302.787 31.1453 302.657 31.024C302.535 30.9027 302.475 30.758 302.475 30.59C302.475 30.422 302.521 30.282 302.615 30.17C302.708 30.058 302.82 29.9833 302.951 29.946C303.1 29.8993 303.175 29.8153 303.175 29.694C303.175 29.582 303.123 29.456 303.021 29.316C302.927 29.176 302.778 29.0547 302.573 28.952C302.367 28.84 302.111 28.784 301.803 28.784C301.215 28.784 300.813 29.036 300.599 29.54C300.393 30.044 300.291 30.8 300.291 31.808C300.291 32.816 300.393 33.572 300.599 34.076C300.804 34.58 301.205 34.832 301.803 34.832C302.372 34.832 302.811 34.6313 303.119 34.23C303.427 33.8287 303.613 33.3573 303.679 32.816H304.015C303.987 33.1987 303.889 33.572 303.721 33.936C303.553 34.2907 303.305 34.5847 302.979 34.818C302.652 35.0513 302.26 35.168 301.803 35.168ZM306.36 38.332C305.996 38.332 305.698 38.2153 305.464 37.982C305.343 37.87 305.245 37.7347 305.17 37.576C305.105 37.4267 305.072 37.268 305.072 37.1C305.072 36.9787 305.091 36.862 305.128 36.75C305.175 36.6473 305.231 36.568 305.296 36.512C305.436 36.372 305.595 36.302 305.772 36.302C305.987 36.302 306.146 36.3673 306.248 36.498C306.36 36.638 306.416 36.8107 306.416 37.016C306.416 37.128 306.379 37.2587 306.304 37.408C306.248 37.5013 306.22 37.59 306.22 37.674C306.22 37.814 306.314 37.884 306.5 37.884C306.78 37.884 307.014 37.772 307.2 37.548C307.396 37.3333 307.541 37.0767 307.634 36.778L308.012 35.56L306.024 29.778C305.912 29.4793 305.805 29.2693 305.702 29.148C305.6 29.0173 305.432 28.952 305.198 28.952H304.736V28.616H307.9V28.952H307.452C307.34 28.952 307.238 28.9847 307.144 29.05C307.051 29.106 307.004 29.1853 307.004 29.288C307.004 29.4467 307.032 29.6007 307.088 29.75L308.544 34.048L309.706 30.212C309.744 30.1 309.776 29.974 309.804 29.834C309.842 29.694 309.86 29.582 309.86 29.498C309.86 29.3393 309.814 29.2087 309.72 29.106C309.627 29.0033 309.506 28.952 309.356 28.952H309.02V28.616H311.568V28.952H311.246C311.041 28.952 310.85 29.022 310.672 29.162C310.504 29.2927 310.374 29.498 310.28 29.778L308.026 36.946C307.924 37.2913 307.728 37.6087 307.438 37.898C307.149 38.1873 306.79 38.332 306.36 38.332ZM313.868 35.168C313.616 35.168 313.406 35.0887 313.238 34.93C313.08 34.762 313 34.552 313 34.3C313 34.048 313.08 33.8427 313.238 33.684C313.406 33.516 313.616 33.432 313.868 33.432C314.12 33.432 314.326 33.516 314.484 33.684C314.652 33.8427 314.736 34.048 314.736 34.3C314.736 34.552 314.652 34.762 314.484 34.93C314.326 35.0887 314.12 35.168 313.868 35.168Z" fill="#FFAE2B"/>
<path d="M15.1325 10.94C14.9645 10.94 14.8338 10.884 14.7405 10.772C14.6472 10.66 14.6005 10.5153 14.6005 10.338C14.6005 10.2073 14.6565 10.0067 14.7685 9.736C14.8992 9.40933 14.9645 9.05 14.9645 8.658C14.9645 8.574 14.9552 8.518 14.9365 8.49C14.9272 8.462 14.8992 8.448 14.8525 8.448C14.8058 8.448 14.7405 8.476 14.6565 8.532C14.3298 8.73733 14.0685 8.966 13.8725 9.218C13.7325 9.40467 13.6018 9.54467 13.4805 9.638C13.3685 9.722 13.2378 9.764 13.0885 9.764C12.9298 9.764 12.8038 9.71267 12.7105 9.61C12.6172 9.498 12.5705 9.37667 12.5705 9.246C12.5705 9.04067 12.6545 8.89133 12.8225 8.798C12.9905 8.69533 13.2192 8.62533 13.5085 8.588C13.8538 8.54133 14.1992 8.42 14.5445 8.224C14.5632 8.21467 14.5912 8.196 14.6285 8.168C14.6658 8.14 14.6845 8.10733 14.6845 8.07C14.6845 8.03267 14.6658 8 14.6285 7.972C14.5912 7.944 14.5632 7.92533 14.5445 7.916C14.1992 7.72 13.8538 7.59867 13.5085 7.552C13.2192 7.51467 12.9905 7.44933 12.8225 7.356C12.6545 7.25333 12.5705 7.09933 12.5705 6.894C12.5705 6.76333 12.6172 6.64667 12.7105 6.544C12.8038 6.432 12.9298 6.376 13.0885 6.376C13.2378 6.376 13.3685 6.42267 13.4805 6.516C13.6018 6.6 13.7325 6.73533 13.8725 6.922C14.0685 7.174 14.3298 7.40267 14.6565 7.608C14.7405 7.664 14.8058 7.692 14.8525 7.692C14.8992 7.692 14.9272 7.678 14.9365 7.65C14.9552 7.622 14.9645 7.566 14.9645 7.482C14.9645 7.09 14.8992 6.73067 14.7685 6.404C14.6565 6.13333 14.6005 5.93267 14.6005 5.802C14.6005 5.62467 14.6472 5.48 14.7405 5.368C14.8338 5.256 14.9645 5.2 15.1325 5.2C15.3005 5.2 15.4312 5.256 15.5245 5.368C15.6178 5.48 15.6645 5.62467 15.6645 5.802C15.6645 5.93267 15.6085 6.13333 15.4965 6.404C15.3658 6.73067 15.3005 7.09 15.3005 7.482C15.3005 7.566 15.3052 7.622 15.3145 7.65C15.3332 7.678 15.3658 7.692 15.4125 7.692C15.4592 7.692 15.5245 7.664 15.6085 7.608C15.9352 7.40267 16.1965 7.174 16.3925 6.922C16.5325 6.73533 16.6632 6.6 16.7845 6.516C16.9058 6.42267 17.0365 6.376 17.1765 6.376C17.3352 6.376 17.4612 6.432 17.5545 6.544C17.6478 6.64667 17.6945 6.76333 17.6945 6.894C17.6945 7.09933 17.6105 7.25333 17.4425 7.356C17.2745 7.44933 17.0458 7.51467 16.7565 7.552C16.4112 7.59867 16.0658 7.72 15.7205 7.916C15.7018 7.92533 15.6738 7.944 15.6365 7.972C15.5992 8 15.5805 8.03267 15.5805 8.07C15.5805 8.10733 15.5992 8.14 15.6365 8.168C15.6738 8.196 15.7018 8.21467 15.7205 8.224C16.0658 8.42 16.4112 8.54133 16.7565 8.588C17.0458 8.62533 17.2745 8.69533 17.4425 8.798C17.6105 8.89133 17.6945 9.04067 17.6945 9.246C17.6945 9.37667 17.6478 9.498 17.5545 9.61C17.4612 9.71267 17.3352 9.764 17.1765 9.764C17.0365 9.764 16.9058 9.722 16.7845 9.638C16.6632 9.54467 16.5325 9.40467 16.3925 9.218C16.1965 8.966 15.9352 8.73733 15.6085 8.532C15.5245 8.476 15.4592 8.448 15.4125 8.448C15.3658 8.448 15.3332 8.462 15.3145 8.49C15.3052 8.518 15.3005 8.574 15.3005 8.658C15.3005 9.05 15.3658 9.40933 15.4965 9.736C15.6085 10.0067 15.6645 10.2073 15.6645 10.338C15.6645 10.5153 15.6178 10.66 15.5245 10.772C15.4312 10.884 15.3005 10.94 15.1325 10.94ZM23.3817 14.552H24.3897C24.6417 14.552 24.7677 14.426 24.7677 14.174V5.858C24.7677 5.72733 24.735 5.634 24.6697 5.578C24.6137 5.51267 24.5203 5.48 24.3897 5.48H23.3817V5.032H27.9457C28.4963 5.032 29.0097 5.13467 29.4857 5.34C29.971 5.54533 30.3583 5.83 30.6477 6.194C30.937 6.54867 31.0817 6.95467 31.0817 7.412C31.0817 8.04667 30.867 8.56933 30.4377 8.98C30.0083 9.39067 29.509 9.65667 28.9397 9.778V9.834C29.3223 9.862 29.7003 9.98333 30.0737 10.198C30.4563 10.4033 30.769 10.688 31.0117 11.052C31.2637 11.416 31.3897 11.8267 31.3897 12.284C31.3897 12.8533 31.2403 13.3433 30.9417 13.754C30.643 14.1647 30.2417 14.4773 29.7377 14.692C29.243 14.8973 28.697 15 28.0997 15H23.3817V14.552ZM27.8897 9.568C28.6457 9.568 29.159 9.37667 29.4297 8.994C29.7097 8.602 29.8497 8.07467 29.8497 7.412C29.8497 6.852 29.6723 6.39 29.3177 6.026C28.963 5.662 28.5243 5.48 28.0017 5.48H26.4337C26.303 5.48 26.205 5.51267 26.1397 5.578C26.0837 5.634 26.0557 5.72733 26.0557 5.858V9.568H27.8897ZM27.9457 14.552C28.515 14.552 28.9817 14.384 29.3457 14.048C29.719 13.7027 29.9057 13.1147 29.9057 12.284C29.9057 11.4533 29.719 10.87 29.3457 10.534C28.9817 10.1887 28.515 10.016 27.9457 10.016H26.0557V14.174C26.0557 14.426 26.1817 14.552 26.4337 14.552H27.9457ZM34.0557 18.332C33.6917 18.332 33.393 18.2153 33.1597 17.982C33.0384 17.87 32.9404 17.7347 32.8657 17.576C32.8004 17.4267 32.7677 17.268 32.7677 17.1C32.7677 16.9787 32.7864 16.862 32.8237 16.75C32.8704 16.6473 32.9264 16.568 32.9917 16.512C33.1317 16.372 33.2904 16.302 33.4677 16.302C33.6824 16.302 33.841 16.3673 33.9437 16.498C34.0557 16.638 34.1117 16.8107 34.1117 17.016C34.1117 17.128 34.0744 17.2587 33.9997 17.408C33.9437 17.5013 33.9157 17.59 33.9157 17.674C33.9157 17.814 34.009 17.884 34.1957 17.884C34.4757 17.884 34.709 17.772 34.8957 17.548C35.0917 17.3333 35.2364 17.0767 35.3297 16.778L35.7077 15.56L33.7197 9.778C33.6077 9.47933 33.5004 9.26933 33.3977 9.148C33.295 9.01733 33.127 8.952 32.8937 8.952H32.4317V8.616H35.5957V8.952H35.1477C35.0357 8.952 34.933 8.98467 34.8397 9.05C34.7464 9.106 34.6997 9.18533 34.6997 9.288C34.6997 9.44667 34.7277 9.60067 34.7837 9.75L36.2397 14.048L37.4017 10.212C37.439 10.1 37.4717 9.974 37.4997 9.834C37.537 9.694 37.5557 9.582 37.5557 9.498C37.5557 9.33933 37.509 9.20867 37.4157 9.106C37.3224 9.00333 37.201 8.952 37.0517 8.952H36.7157V8.616H39.2637V8.952H38.9417C38.7364 8.952 38.545 9.022 38.3677 9.162C38.1997 9.29267 38.069 9.498 37.9757 9.778L35.7217 16.946C35.619 17.2913 35.423 17.6087 35.1337 17.898C34.8444 18.1873 34.485 18.332 34.0557 18.332ZM46.9433 15.168C46.402 15.168 45.9213 15.0187 45.5013 14.72C45.0907 14.4213 44.7687 14.0153 44.5353 13.502C44.3113 12.9887 44.1993 12.424 44.1993 11.808C44.1993 11.192 44.316 10.6273 44.5493 10.114C44.7827 9.60067 45.1047 9.19467 45.5153 8.896C45.9353 8.59733 46.4113 8.448 46.9433 8.448C47.3727 8.448 47.746 8.54133 48.0633 8.728C48.3807 8.90533 48.6233 9.13867 48.7913 9.428C48.9593 9.708 49.0433 9.99267 49.0433 10.282C49.0433 10.5713 48.9687 10.8 48.8193 10.968C48.67 11.1267 48.488 11.206 48.2733 11.206C48.0867 11.206 47.928 11.1453 47.7973 11.024C47.676 10.9027 47.6153 10.758 47.6153 10.59C47.6153 10.422 47.662 10.282 47.7553 10.17C47.8487 10.058 47.9607 9.98333 48.0913 9.946C48.2407 9.89933 48.3153 9.81533 48.3153 9.694C48.3153 9.582 48.264 9.456 48.1613 9.316C48.068 9.176 47.9187 9.05467 47.7133 8.952C47.508 8.84 47.2513 8.784 46.9433 8.784C46.3553 8.784 45.954 9.036 45.7393 9.54C45.534 10.044 45.4313 10.8 45.4313 11.808C45.4313 12.816 45.534 13.572 45.7393 14.076C45.9447 14.58 46.346 14.832 46.9433 14.832C47.5127 14.832 47.9513 14.6313 48.2593 14.23C48.5673 13.8287 48.754 13.3573 48.8193 12.816H49.1553C49.1273 13.1987 49.0293 13.572 48.8613 13.936C48.6933 14.2907 48.446 14.5847 48.1193 14.818C47.7927 15.0513 47.4007 15.168 46.9433 15.168ZM50.017 14.664H50.745C50.857 14.664 50.9363 14.6407 50.983 14.594C51.0297 14.5473 51.053 14.468 51.053 14.356V5.676C51.053 5.564 51.0297 5.48467 50.983 5.438C50.9363 5.39133 50.857 5.368 50.745 5.368H50.017V5.032H52.061V14.356C52.061 14.468 52.0843 14.5473 52.131 14.594C52.1777 14.6407 52.257 14.664 52.369 14.664H53.097V15H50.017V14.664ZM55.2464 6.88C55.0411 6.88 54.8684 6.81 54.7284 6.67C54.5884 6.53 54.5184 6.35733 54.5184 6.152C54.5184 5.93733 54.5884 5.76467 54.7284 5.634C54.8684 5.494 55.0411 5.424 55.2464 5.424C55.4611 5.424 55.6338 5.494 55.7644 5.634C55.9044 5.76467 55.9744 5.93733 55.9744 6.152C55.9744 6.35733 55.9044 6.53 55.7644 6.67C55.6338 6.81 55.4611 6.88 55.2464 6.88ZM53.9304 14.664H54.5184C54.6304 14.664 54.7098 14.6407 54.7564 14.594C54.8031 14.5473 54.8264 14.468 54.8264 14.356V9.26C54.8264 9.148 54.8031 9.06867 54.7564 9.022C54.7098 8.97533 54.6304 8.952 54.5184 8.952H53.9304V8.616H55.8344V14.356C55.8344 14.468 55.8578 14.5473 55.9044 14.594C55.9511 14.6407 56.0304 14.664 56.1424 14.664H56.7304V15H53.9304V14.664ZM60.5879 15.168C60.0465 15.168 59.5659 15.0187 59.1459 14.72C58.7352 14.4213 58.4132 14.0153 58.1799 13.502C57.9559 12.9887 57.8439 12.424 57.8439 11.808C57.8439 11.192 57.9605 10.6273 58.1939 10.114C58.4272 9.60067 58.7492 9.19467 59.1599 8.896C59.5799 8.59733 60.0559 8.448 60.5879 8.448C61.0172 8.448 61.3905 8.54133 61.7079 8.728C62.0252 8.90533 62.2679 9.13867 62.4359 9.428C62.6039 9.708 62.6879 9.99267 62.6879 10.282C62.6879 10.5713 62.6132 10.8 62.4639 10.968C62.3145 11.1267 62.1325 11.206 61.9179 11.206C61.7312 11.206 61.5725 11.1453 61.4419 11.024C61.3205 10.9027 61.2599 10.758 61.2599 10.59C61.2599 10.422 61.3065 10.282 61.3999 10.17C61.4932 10.058 61.6052 9.98333 61.7359 9.946C61.8852 9.89933 61.9599 9.81533 61.9599 9.694C61.9599 9.582 61.9085 9.456 61.8059 9.316C61.7125 9.176 61.5632 9.05467 61.3579 8.952C61.1525 8.84 60.8959 8.784 60.5879 8.784C59.9999 8.784 59.5985 9.036 59.3839 9.54C59.1785 10.044 59.0759 10.8 59.0759 11.808C59.0759 12.816 59.1785 13.572 59.3839 14.076C59.5892 14.58 59.9905 14.832 60.5879 14.832C61.1572 14.832 61.5959 14.6313 61.9039 14.23C62.2119 13.8287 62.3985 13.3573 62.4639 12.816H62.7999C62.7719 13.1987 62.6739 13.572 62.5059 13.936C62.3379 14.2907 62.0905 14.5847 61.7639 14.818C61.4372 15.0513 61.0452 15.168 60.5879 15.168ZM63.6615 14.664H64.3895C64.5015 14.664 64.5809 14.6407 64.6275 14.594C64.6742 14.5473 64.6975 14.468 64.6975 14.356V5.676C64.6975 5.564 64.6742 5.48467 64.6275 5.438C64.5809 5.39133 64.5015 5.368 64.3895 5.368H63.6615V5.032H65.7055V12.158L67.6095 9.834C67.7122 9.722 67.7775 9.63333 67.8055 9.568C67.8429 9.50267 67.8615 9.41867 67.8615 9.316C67.8615 9.19467 67.8149 9.106 67.7215 9.05C67.6375 8.98467 67.5255 8.952 67.3855 8.952H67.0215V8.616H69.8775V8.952H69.4295C69.1775 8.952 68.9535 9.01733 68.7575 9.148C68.5615 9.27867 68.3375 9.498 68.0855 9.806L67.0215 11.108L69.2055 14.216C69.3175 14.3747 69.4155 14.4913 69.4995 14.566C69.5835 14.6313 69.7002 14.664 69.8495 14.664H70.1295V15H67.1615V14.664H67.5255C67.6469 14.664 67.7402 14.6453 67.8055 14.608C67.8709 14.5613 67.9035 14.4867 67.9035 14.384C67.9035 14.2813 67.8895 14.1973 67.8615 14.132C67.8335 14.0667 67.7869 13.9827 67.7215 13.88L66.3495 11.92L65.7055 12.704V14.356C65.7055 14.468 65.7289 14.5473 65.7755 14.594C65.8222 14.6407 65.9015 14.664 66.0135 14.664H66.4615V15H63.6615V14.664ZM72.391 6.88C72.1856 6.88 72.013 6.81 71.873 6.67C71.733 6.53 71.663 6.35733 71.663 6.152C71.663 5.93733 71.733 5.76467 71.873 5.634C72.013 5.494 72.1856 5.424 72.391 5.424C72.6056 5.424 72.7783 5.494 72.909 5.634C73.049 5.76467 73.119 5.93733 73.119 6.152C73.119 6.35733 73.049 6.53 72.909 6.67C72.7783 6.81 72.6056 6.88 72.391 6.88ZM71.075 14.664H71.663C71.775 14.664 71.8543 14.6407 71.901 14.594C71.9476 14.5473 71.971 14.468 71.971 14.356V9.26C71.971 9.148 71.9476 9.06867 71.901 9.022C71.8543 8.97533 71.775 8.952 71.663 8.952H71.075V8.616H72.979V14.356C72.979 14.468 73.0023 14.5473 73.049 14.594C73.0956 14.6407 73.175 14.664 73.287 14.664H73.875V15H71.075V14.664ZM74.8484 14.664H75.4364C75.5484 14.664 75.6277 14.6407 75.6744 14.594C75.7211 14.5473 75.7444 14.468 75.7444 14.356V9.26C75.7444 9.148 75.7211 9.06867 75.6744 9.022C75.6277 8.97533 75.5484 8.952 75.4364 8.952H74.8484V8.616H76.7524V9.764L76.8084 9.778C77.0231 9.33 77.2891 8.99867 77.6064 8.784C77.9237 8.56 78.2737 8.448 78.6564 8.448C79.3377 8.448 79.8184 8.658 80.0984 9.078C80.3877 9.498 80.5324 10.002 80.5324 10.59V14.356C80.5324 14.468 80.5557 14.5473 80.6024 14.594C80.6491 14.6407 80.7284 14.664 80.8404 14.664H81.4284V15H78.6284V14.664H79.2164C79.3284 14.664 79.4077 14.6407 79.4544 14.594C79.5011 14.5473 79.5244 14.468 79.5244 14.356V10.324C79.5244 9.91333 79.4404 9.56333 79.2724 9.274C79.1137 8.98467 78.8384 8.84 78.4464 8.84C78.1197 8.84 77.8257 8.95667 77.5644 9.19C77.3124 9.414 77.1117 9.72667 76.9624 10.128C76.8224 10.52 76.7524 10.9587 76.7524 11.444V14.356C76.7524 14.468 76.7757 14.5473 76.8224 14.594C76.8691 14.6407 76.9484 14.664 77.0604 14.664H77.6484V15H74.8484V14.664ZM85.629 18.332C84.8076 18.332 84.0983 18.2013 83.501 17.94C82.9036 17.6787 82.605 17.268 82.605 16.708C82.605 16.3627 82.7403 16.0593 83.011 15.798C83.2816 15.5367 83.6036 15.378 83.977 15.322V15.28C83.1556 15.1027 82.745 14.7573 82.745 14.244C82.745 13.8613 82.8896 13.5627 83.179 13.348C83.4776 13.124 83.8416 12.9747 84.271 12.9V12.858C83.879 12.69 83.543 12.438 83.263 12.102C82.9923 11.7567 82.857 11.304 82.857 10.744C82.857 10.268 82.9736 9.85733 83.207 9.512C83.4403 9.16667 83.7436 8.90533 84.117 8.728C84.4996 8.54133 84.9103 8.448 85.349 8.448C85.6196 8.448 85.8856 8.49467 86.147 8.588C86.4176 8.672 86.6463 8.77467 86.833 8.896C87.029 9.008 87.155 9.10133 87.211 9.176C87.295 8.93333 87.4303 8.75133 87.617 8.63C87.8036 8.50867 87.9903 8.448 88.177 8.448C88.4943 8.448 88.7556 8.54133 88.961 8.728C89.1663 8.91467 89.269 9.15733 89.269 9.456C89.269 9.68 89.213 9.862 89.101 10.002C88.9983 10.142 88.8583 10.212 88.681 10.212C88.5316 10.212 88.401 10.1747 88.289 10.1C88.177 10.016 88.121 9.88533 88.121 9.708C88.121 9.50267 88.2003 9.35333 88.359 9.26C88.415 9.22267 88.4523 9.19 88.471 9.162C88.499 9.12467 88.513 9.07333 88.513 9.008C88.513 8.93333 88.4756 8.87733 88.401 8.84C88.3263 8.80267 88.2376 8.784 88.135 8.784C87.967 8.784 87.813 8.854 87.673 8.994C87.5423 9.12467 87.4676 9.27867 87.449 9.456C87.7103 9.82 87.841 10.2493 87.841 10.744C87.841 11.2107 87.729 11.6213 87.505 11.976C87.281 12.3213 86.9776 12.5873 86.595 12.774C86.2216 12.9513 85.8063 13.04 85.349 13.04C84.817 13.04 84.341 13.1147 83.921 13.264C83.5103 13.404 83.305 13.642 83.305 13.978C83.305 14.1553 83.3843 14.2767 83.543 14.342C83.7016 14.4073 83.921 14.44 84.201 14.44C84.397 14.44 84.5556 14.4353 84.677 14.426C84.789 14.4167 84.9336 14.412 85.111 14.412H86.553C87.1503 14.412 87.6496 14.5753 88.051 14.902C88.4523 15.2193 88.653 15.6907 88.653 16.316C88.653 16.9693 88.373 17.4687 87.813 17.814C87.2623 18.1593 86.5343 18.332 85.629 18.332ZM85.349 12.704C85.7783 12.704 86.1143 12.5313 86.357 12.186C86.5996 11.8407 86.721 11.36 86.721 10.744C86.721 10.128 86.5996 9.64733 86.357 9.302C86.1143 8.95667 85.7783 8.784 85.349 8.784C84.9196 8.784 84.5836 8.95667 84.341 9.302C84.0983 9.64733 83.977 10.128 83.977 10.744C83.977 11.36 84.0983 11.8407 84.341 12.186C84.5836 12.5313 84.9196 12.704 85.349 12.704ZM85.629 17.996C86.301 17.996 86.889 17.8747 87.393 17.632C87.897 17.3987 88.149 16.9973 88.149 16.428C88.149 16.1387 88.0603 15.8867 87.883 15.672C87.715 15.4667 87.4163 15.364 86.987 15.364H85.433C84.8356 15.364 84.3176 15.462 83.879 15.658C83.4403 15.8633 83.221 16.204 83.221 16.68C83.221 17.1187 83.4683 17.4453 83.963 17.66C84.4576 17.884 85.013 17.996 85.629 17.996Z" fill="#ACA592"/>
<path d="M113.316 18.168C112.943 18.168 112.598 18.042 112.28 17.79C111.963 17.538 111.711 17.2067 111.524 16.796H111.468L110.88 18H110.628V8.676C110.628 8.564 110.605 8.48467 110.558 8.438C110.512 8.39133 110.432 8.368 110.32 8.368H109.592V8.032H111.636V12.652L111.692 12.666C111.832 12.33 112.047 12.0453 112.336 11.812C112.626 11.5693 112.952 11.448 113.316 11.448C113.755 11.448 114.161 11.5973 114.534 11.896C114.917 12.1853 115.22 12.5867 115.444 13.1C115.668 13.6133 115.78 14.1827 115.78 14.808C115.78 15.4333 115.668 16.0027 115.444 16.516C115.22 17.0293 114.917 17.4353 114.534 17.734C114.161 18.0233 113.755 18.168 113.316 18.168ZM113.162 17.776C113.62 17.776 113.965 17.5193 114.198 17.006C114.432 16.4927 114.548 15.76 114.548 14.808C114.548 13.856 114.432 13.1233 114.198 12.61C113.965 12.0967 113.62 11.84 113.162 11.84C112.882 11.84 112.626 11.9427 112.392 12.148C112.159 12.3533 111.972 12.638 111.832 13.002C111.702 13.3567 111.636 13.744 111.636 14.164V15.452C111.636 15.872 111.702 16.264 111.832 16.628C111.972 16.9827 112.159 17.2627 112.392 17.468C112.626 17.6733 112.882 17.776 113.162 17.776ZM119.668 18.168C118.987 18.168 118.502 17.958 118.212 17.538C117.932 17.118 117.792 16.614 117.792 16.026V12.26C117.792 12.148 117.769 12.0687 117.722 12.022C117.676 11.9753 117.596 11.952 117.484 11.952H116.896V11.616H118.8V16.292C118.8 16.7027 118.88 17.0527 119.038 17.342C119.206 17.6313 119.486 17.776 119.878 17.776C120.205 17.776 120.494 17.664 120.746 17.44C121.008 17.2067 121.208 16.894 121.348 16.502C121.498 16.1007 121.572 15.6573 121.572 15.172V12.26C121.572 12.148 121.549 12.0687 121.502 12.022C121.456 11.9753 121.376 11.952 121.264 11.952H120.676V11.616H122.58V17.356C122.58 17.468 122.604 17.5473 122.65 17.594C122.697 17.6407 122.776 17.664 122.888 17.664H123.476V18H121.572V16.852L121.516 16.838C121.302 17.286 121.036 17.622 120.718 17.846C120.401 18.0607 120.051 18.168 119.668 18.168ZM126.811 18.168C126.391 18.168 126.041 18.0187 125.761 17.72C125.49 17.4213 125.355 17.0153 125.355 16.502V12.008H124.319V11.616H124.627C125.047 11.616 125.373 11.392 125.607 10.944C125.849 10.4867 125.971 9.98267 125.971 9.432V8.928H126.363V11.616H128.099V12.008H126.363V16.572C126.363 16.852 126.419 17.0853 126.531 17.272C126.643 17.4587 126.834 17.552 127.105 17.552C127.767 17.552 128.099 16.992 128.099 15.872H128.351C128.351 16.4973 128.257 17.0387 128.071 17.496C127.893 17.944 127.473 18.168 126.811 18.168ZM131.705 18.168C131.285 18.168 130.935 18.0187 130.655 17.72C130.385 17.4213 130.249 17.0153 130.249 16.502V12.008H129.213V11.616H129.521C129.941 11.616 130.268 11.392 130.501 10.944C130.744 10.4867 130.865 9.98267 130.865 9.432V8.928H131.257V11.616H132.993V12.008H131.257V16.572C131.257 16.852 131.313 17.0853 131.425 17.272C131.537 17.4587 131.729 17.552 131.999 17.552C132.662 17.552 132.993 16.992 132.993 15.872H133.245C133.245 16.4973 133.152 17.0387 132.965 17.496C132.788 17.944 132.368 18.168 131.705 18.168ZM137.188 18.168C136.674 18.168 136.203 18.0187 135.774 17.72C135.344 17.412 135.004 17.0013 134.752 16.488C134.509 15.9747 134.388 15.4147 134.388 14.808C134.388 14.2013 134.509 13.6413 134.752 13.128C135.004 12.6147 135.344 12.2087 135.774 11.91C136.203 11.602 136.674 11.448 137.188 11.448C137.701 11.448 138.172 11.602 138.602 11.91C139.031 12.2087 139.367 12.6147 139.61 13.128C139.862 13.6413 139.988 14.2013 139.988 14.808C139.988 15.4147 139.862 15.9747 139.61 16.488C139.367 17.0013 139.031 17.412 138.602 17.72C138.172 18.0187 137.701 18.168 137.188 18.168ZM137.188 17.832C137.748 17.832 138.149 17.5707 138.392 17.048C138.634 16.516 138.756 15.7693 138.756 14.808C138.756 13.8467 138.634 13.1047 138.392 12.582C138.149 12.05 137.748 11.784 137.188 11.784C136.628 11.784 136.226 12.05 135.984 12.582C135.741 13.1047 135.62 13.8467 135.62 14.808C135.62 15.7693 135.741 16.516 135.984 17.048C136.226 17.5707 136.628 17.832 137.188 17.832ZM141.193 17.664H141.781C141.893 17.664 141.972 17.6407 142.019 17.594C142.066 17.5473 142.089 17.468 142.089 17.356V12.26C142.089 12.148 142.066 12.0687 142.019 12.022C141.972 11.9753 141.893 11.952 141.781 11.952H141.193V11.616H143.097V12.764L143.153 12.778C143.368 12.33 143.634 11.9987 143.951 11.784C144.268 11.56 144.618 11.448 145.001 11.448C145.682 11.448 146.163 11.658 146.443 12.078C146.732 12.498 146.877 13.002 146.877 13.59V17.356C146.877 17.468 146.9 17.5473 146.947 17.594C146.994 17.6407 147.073 17.664 147.185 17.664H147.773V18H144.973V17.664H145.561C145.673 17.664 145.752 17.6407 145.799 17.594C145.846 17.5473 145.869 17.468 145.869 17.356V13.324C145.869 12.9133 145.785 12.5633 145.617 12.274C145.458 11.9847 145.183 11.84 144.791 11.84C144.464 11.84 144.17 11.9567 143.909 12.19C143.657 12.414 143.456 12.7267 143.307 13.128C143.167 13.52 143.097 13.9587 143.097 14.444V17.356C143.097 17.468 143.12 17.5473 143.167 17.594C143.214 17.6407 143.293 17.664 143.405 17.664H143.993V18H141.193V17.664ZM149.482 20.128C149.827 19.8667 150.107 19.5493 150.322 19.176C150.546 18.8027 150.658 18.4293 150.658 18.056C150.658 17.9533 150.639 17.874 150.602 17.818C150.564 17.7527 150.499 17.692 150.406 17.636C150.34 17.5987 150.182 17.58 149.93 17.58C149.724 17.58 149.556 17.51 149.426 17.37C149.295 17.2207 149.23 17.048 149.23 16.852C149.23 16.6 149.314 16.404 149.482 16.264C149.65 16.1147 149.836 16.04 150.042 16.04C150.406 16.04 150.69 16.1893 150.896 16.488C151.073 16.7307 151.162 17.062 151.162 17.482C151.162 18.0607 151.017 18.6067 150.728 19.12C150.438 19.6427 150.088 20.0533 149.678 20.352L149.482 20.128ZM157.945 21.332C157.581 21.332 157.283 21.2153 157.049 20.982C156.928 20.87 156.83 20.7347 156.755 20.576C156.69 20.4267 156.657 20.268 156.657 20.1C156.657 19.9787 156.676 19.862 156.713 19.75C156.76 19.6473 156.816 19.568 156.881 19.512C157.021 19.372 157.18 19.302 157.357 19.302C157.572 19.302 157.731 19.3673 157.833 19.498C157.945 19.638 158.001 19.8107 158.001 20.016C158.001 20.128 157.964 20.2587 157.889 20.408C157.833 20.5013 157.805 20.59 157.805 20.674C157.805 20.814 157.899 20.884 158.085 20.884C158.365 20.884 158.599 20.772 158.785 20.548C158.981 20.3333 159.126 20.0767 159.219 19.778L159.597 18.56L157.609 12.778C157.497 12.4793 157.39 12.2693 157.287 12.148C157.185 12.0173 157.017 11.952 156.783 11.952H156.321V11.616H159.485V11.952H159.037C158.925 11.952 158.823 11.9847 158.729 12.05C158.636 12.106 158.589 12.1853 158.589 12.288C158.589 12.4467 158.617 12.6007 158.673 12.75L160.129 17.048L161.291 13.212C161.329 13.1 161.361 12.974 161.389 12.834C161.427 12.694 161.445 12.582 161.445 12.498C161.445 12.3393 161.399 12.2087 161.305 12.106C161.212 12.0033 161.091 11.952 160.941 11.952H160.605V11.616H163.153V11.952H162.831C162.626 11.952 162.435 12.022 162.257 12.162C162.089 12.2927 161.959 12.498 161.865 12.778L159.611 19.946C159.509 20.2913 159.313 20.6087 159.023 20.898C158.734 21.1873 158.375 21.332 157.945 21.332ZM166.295 18.168C165.782 18.168 165.311 18.0187 164.881 17.72C164.452 17.412 164.111 17.0013 163.859 16.488C163.617 15.9747 163.495 15.4147 163.495 14.808C163.495 14.2013 163.617 13.6413 163.859 13.128C164.111 12.6147 164.452 12.2087 164.881 11.91C165.311 11.602 165.782 11.448 166.295 11.448C166.809 11.448 167.28 11.602 167.709 11.91C168.139 12.2087 168.475 12.6147 168.717 13.128C168.969 13.6413 169.095 14.2013 169.095 14.808C169.095 15.4147 168.969 15.9747 168.717 16.488C168.475 17.0013 168.139 17.412 167.709 17.72C167.28 18.0187 166.809 18.168 166.295 18.168ZM166.295 17.832C166.855 17.832 167.257 17.5707 167.499 17.048C167.742 16.516 167.863 15.7693 167.863 14.808C167.863 13.8467 167.742 13.1047 167.499 12.582C167.257 12.05 166.855 11.784 166.295 11.784C165.735 11.784 165.334 12.05 165.091 12.582C164.849 13.1047 164.727 13.8467 164.727 14.808C164.727 15.7693 164.849 16.516 165.091 17.048C165.334 17.5707 165.735 17.832 166.295 17.832ZM172.989 18.168C172.307 18.168 171.822 17.958 171.533 17.538C171.253 17.118 171.113 16.614 171.113 16.026V12.26C171.113 12.148 171.089 12.0687 171.043 12.022C170.996 11.9753 170.917 11.952 170.805 11.952H170.217V11.616H172.121V16.292C172.121 16.7027 172.2 17.0527 172.359 17.342C172.527 17.6313 172.807 17.776 173.199 17.776C173.525 17.776 173.815 17.664 174.067 17.44C174.328 17.2067 174.529 16.894 174.669 16.502C174.818 16.1007 174.893 15.6573 174.893 15.172V12.26C174.893 12.148 174.869 12.0687 174.823 12.022C174.776 11.9753 174.697 11.952 174.585 11.952H173.997V11.616H175.901V17.356C175.901 17.468 175.924 17.5473 175.971 17.594C176.017 17.6407 176.097 17.664 176.209 17.664H176.797V18H174.893V16.852L174.837 16.838C174.622 17.286 174.356 17.622 174.039 17.846C173.721 18.0607 173.371 18.168 172.989 18.168ZM183.635 18.168C183.14 18.168 182.711 18.0467 182.347 17.804C181.992 17.5613 181.815 17.132 181.815 16.516C181.815 16.04 181.936 15.6667 182.179 15.396C182.422 15.1253 182.702 14.934 183.019 14.822C183.346 14.7007 183.738 14.598 184.195 14.514L185.483 14.276V13.086C185.483 12.218 185.049 11.784 184.181 11.784C183.864 11.784 183.574 11.868 183.313 12.036C183.052 12.1947 182.921 12.3767 182.921 12.582C182.921 12.6753 182.935 12.7453 182.963 12.792C182.982 12.82 183.01 12.848 183.047 12.876C183.094 12.904 183.136 12.9227 183.173 12.932C183.341 12.9787 183.467 13.044 183.551 13.128C183.644 13.212 183.691 13.3287 183.691 13.478C183.691 13.674 183.63 13.814 183.509 13.898C183.397 13.982 183.252 14.024 183.075 14.024C182.87 14.024 182.683 13.9447 182.515 13.786C182.347 13.6273 182.263 13.3987 182.263 13.1C182.263 12.7547 182.356 12.456 182.543 12.204C182.739 11.952 182.986 11.7653 183.285 11.644C183.593 11.5133 183.906 11.448 184.223 11.448C184.839 11.448 185.371 11.6113 185.819 11.938C186.267 12.2553 186.491 12.7547 186.491 13.436V16.88C186.491 17.3467 186.636 17.58 186.925 17.58C187.158 17.58 187.326 17.4447 187.429 17.174C187.532 16.9033 187.583 16.572 187.583 16.18H187.835C187.835 16.74 187.751 17.2113 187.583 17.594C187.424 17.9767 187.135 18.168 186.715 18.168C186.314 18.168 186.01 18.0513 185.805 17.818C185.609 17.5753 185.502 17.244 185.483 16.824L185.413 16.796C185.273 17.1227 185.044 17.4353 184.727 17.734C184.419 18.0233 184.055 18.168 183.635 18.168ZM183.859 17.664C184.279 17.664 184.606 17.5007 184.839 17.174C185.082 16.838 185.296 16.4133 185.483 15.9V14.57L184.265 14.836C183.817 14.9293 183.49 15.116 183.285 15.396C183.089 15.6667 182.991 16.054 182.991 16.558C182.991 16.9873 183.08 17.2813 183.257 17.44C183.434 17.5893 183.635 17.664 183.859 17.664ZM191.841 21.332C191.02 21.332 190.31 21.2013 189.713 20.94C189.116 20.6787 188.817 20.268 188.817 19.708C188.817 19.3627 188.952 19.0593 189.223 18.798C189.494 18.5367 189.816 18.378 190.189 18.322V18.28C189.368 18.1027 188.957 17.7573 188.957 17.244C188.957 16.8613 189.102 16.5627 189.391 16.348C189.69 16.124 190.054 15.9747 190.483 15.9V15.858C190.091 15.69 189.755 15.438 189.475 15.102C189.204 14.7567 189.069 14.304 189.069 13.744C189.069 13.268 189.186 12.8573 189.419 12.512C189.652 12.1667 189.956 11.9053 190.329 11.728C190.712 11.5413 191.122 11.448 191.561 11.448C191.832 11.448 192.098 11.4947 192.359 11.588C192.63 11.672 192.858 11.7747 193.045 11.896C193.241 12.008 193.367 12.1013 193.423 12.176C193.507 11.9333 193.642 11.7513 193.829 11.63C194.016 11.5087 194.202 11.448 194.389 11.448C194.706 11.448 194.968 11.5413 195.173 11.728C195.378 11.9147 195.481 12.1573 195.481 12.456C195.481 12.68 195.425 12.862 195.313 13.002C195.21 13.142 195.07 13.212 194.893 13.212C194.744 13.212 194.613 13.1747 194.501 13.1C194.389 13.016 194.333 12.8853 194.333 12.708C194.333 12.5027 194.412 12.3533 194.571 12.26C194.627 12.2227 194.664 12.19 194.683 12.162C194.711 12.1247 194.725 12.0733 194.725 12.008C194.725 11.9333 194.688 11.8773 194.613 11.84C194.538 11.8027 194.45 11.784 194.347 11.784C194.179 11.784 194.025 11.854 193.885 11.994C193.754 12.1247 193.68 12.2787 193.661 12.456C193.922 12.82 194.053 13.2493 194.053 13.744C194.053 14.2107 193.941 14.6213 193.717 14.976C193.493 15.3213 193.19 15.5873 192.807 15.774C192.434 15.9513 192.018 16.04 191.561 16.04C191.029 16.04 190.553 16.1147 190.133 16.264C189.722 16.404 189.517 16.642 189.517 16.978C189.517 17.1553 189.596 17.2767 189.755 17.342C189.914 17.4073 190.133 17.44 190.413 17.44C190.609 17.44 190.768 17.4353 190.889 17.426C191.001 17.4167 191.146 17.412 191.323 17.412H192.765C193.362 17.412 193.862 17.5753 194.263 17.902C194.664 18.2193 194.865 18.6907 194.865 19.316C194.865 19.9693 194.585 20.4687 194.025 20.814C193.474 21.1593 192.746 21.332 191.841 21.332ZM191.561 15.704C191.99 15.704 192.326 15.5313 192.569 15.186C192.812 14.8407 192.933 14.36 192.933 13.744C192.933 13.128 192.812 12.6473 192.569 12.302C192.326 11.9567 191.99 11.784 191.561 11.784C191.132 11.784 190.796 11.9567 190.553 12.302C190.31 12.6473 190.189 13.128 190.189 13.744C190.189 14.36 190.31 14.8407 190.553 15.186C190.796 15.5313 191.132 15.704 191.561 15.704ZM191.841 20.996C192.513 20.996 193.101 20.8747 193.605 20.632C194.109 20.3987 194.361 19.9973 194.361 19.428C194.361 19.1387 194.272 18.8867 194.095 18.672C193.927 18.4667 193.628 18.364 193.199 18.364H191.645C191.048 18.364 190.53 18.462 190.091 18.658C189.652 18.8633 189.433 19.204 189.433 19.68C189.433 20.1187 189.68 20.4453 190.175 20.66C190.67 20.884 191.225 20.996 191.841 20.996ZM196.181 17.664H196.769C196.881 17.664 196.961 17.6407 197.007 17.594C197.054 17.5473 197.077 17.468 197.077 17.356V12.26C197.077 12.148 197.054 12.0687 197.007 12.022C196.961 11.9753 196.881 11.952 196.769 11.952H196.181V11.616H198.085V13.016L198.141 13.03C198.337 12.5447 198.589 12.162 198.897 11.882C199.215 11.5927 199.551 11.448 199.905 11.448C200.26 11.448 200.549 11.5507 200.773 11.756C200.997 11.9613 201.109 12.2413 201.109 12.596C201.109 12.8013 201.035 13.002 200.885 13.198C200.745 13.394 200.563 13.492 200.339 13.492C200.162 13.492 200.013 13.4453 199.891 13.352C199.77 13.2587 199.709 13.128 199.709 12.96C199.709 12.764 199.803 12.596 199.989 12.456C200.073 12.4 200.134 12.3487 200.171 12.302C200.218 12.2553 200.241 12.1947 200.241 12.12C200.241 12.036 200.199 11.9707 200.115 11.924C200.041 11.868 199.933 11.84 199.793 11.84C199.504 11.84 199.224 11.98 198.953 12.26C198.692 12.54 198.482 12.904 198.323 13.352C198.165 13.8 198.085 14.2667 198.085 14.752V17.356C198.085 17.468 198.109 17.5473 198.155 17.594C198.202 17.6407 198.281 17.664 198.393 17.664H198.981V18H196.181V17.664ZM204.948 18.168C204.08 18.168 203.38 17.874 202.848 17.286C202.325 16.698 202.064 15.8813 202.064 14.836C202.064 14.2387 202.18 13.6833 202.414 13.17C202.647 12.6473 202.969 12.232 203.38 11.924C203.8 11.6067 204.266 11.448 204.78 11.448C205.349 11.448 205.816 11.602 206.18 11.91C206.544 12.218 206.805 12.61 206.964 13.086C207.132 13.5527 207.216 14.0333 207.216 14.528C207.216 14.6307 207.183 14.7007 207.118 14.738C207.052 14.766 206.94 14.78 206.782 14.78H203.296C203.296 15.7133 203.426 16.4553 203.688 17.006C203.958 17.5567 204.397 17.832 205.004 17.832C205.433 17.832 205.834 17.6687 206.208 17.342C206.59 17.0153 206.833 16.5067 206.936 15.816H207.272C207.216 16.4973 206.978 17.062 206.558 17.51C206.147 17.9487 205.61 18.168 204.948 18.168ZM206.012 14.444C206.012 13.6973 205.914 13.0673 205.718 12.554C205.522 12.0407 205.2 11.784 204.752 11.784C204.276 11.784 203.912 12.0453 203.66 12.568C203.417 13.0813 203.296 13.7067 203.296 14.444H206.012ZM211.387 18.168C210.519 18.168 209.819 17.874 209.287 17.286C208.764 16.698 208.503 15.8813 208.503 14.836C208.503 14.2387 208.62 13.6833 208.853 13.17C209.086 12.6473 209.408 12.232 209.819 11.924C210.239 11.6067 210.706 11.448 211.219 11.448C211.788 11.448 212.255 11.602 212.619 11.91C212.983 12.218 213.244 12.61 213.403 13.086C213.571 13.5527 213.655 14.0333 213.655 14.528C213.655 14.6307 213.622 14.7007 213.557 14.738C213.492 14.766 213.38 14.78 213.221 14.78H209.735C209.735 15.7133 209.866 16.4553 210.127 17.006C210.398 17.5567 210.836 17.832 211.443 17.832C211.872 17.832 212.274 17.6687 212.647 17.342C213.03 17.0153 213.272 16.5067 213.375 15.816H213.711C213.655 16.4973 213.417 17.062 212.997 17.51C212.586 17.9487 212.05 18.168 211.387 18.168ZM212.451 14.444C212.451 13.6973 212.353 13.0673 212.157 12.554C211.961 12.0407 211.639 11.784 211.191 11.784C210.715 11.784 210.351 12.0453 210.099 12.568C209.856 13.0813 209.735 13.7067 209.735 14.444H212.451ZM221.078 18.168C220.658 18.168 220.308 18.0187 220.028 17.72C219.758 17.4213 219.622 17.0153 219.622 16.502V12.008H218.586V11.616H218.894C219.314 11.616 219.641 11.392 219.874 10.944C220.117 10.4867 220.238 9.98267 220.238 9.432V8.928H220.63V11.616H222.366V12.008H220.63V16.572C220.63 16.852 220.686 17.0853 220.798 17.272C220.91 17.4587 221.102 17.552 221.372 17.552C222.035 17.552 222.366 16.992 222.366 15.872H222.618C222.618 16.4973 222.525 17.0387 222.338 17.496C222.161 17.944 221.741 18.168 221.078 18.168ZM226.561 18.168C226.048 18.168 225.576 18.0187 225.147 17.72C224.718 17.412 224.377 17.0013 224.125 16.488C223.882 15.9747 223.761 15.4147 223.761 14.808C223.761 14.2013 223.882 13.6413 224.125 13.128C224.377 12.6147 224.718 12.2087 225.147 11.91C225.576 11.602 226.048 11.448 226.561 11.448C227.074 11.448 227.546 11.602 227.975 11.91C228.404 12.2087 228.74 12.6147 228.983 13.128C229.235 13.6413 229.361 14.2013 229.361 14.808C229.361 15.4147 229.235 15.9747 228.983 16.488C228.74 17.0013 228.404 17.412 227.975 17.72C227.546 18.0187 227.074 18.168 226.561 18.168ZM226.561 17.832C227.121 17.832 227.522 17.5707 227.765 17.048C228.008 16.516 228.129 15.7693 228.129 14.808C228.129 13.8467 228.008 13.1047 227.765 12.582C227.522 12.05 227.121 11.784 226.561 11.784C226.001 11.784 225.6 12.05 225.357 12.582C225.114 13.1047 224.993 13.8467 224.993 14.808C224.993 15.7693 225.114 16.516 225.357 17.048C225.6 17.5707 226.001 17.832 226.561 17.832ZM237.43 18.168C236.917 18.168 236.445 18.0187 236.016 17.72C235.587 17.412 235.246 17.0013 234.994 16.488C234.751 15.9747 234.63 15.4147 234.63 14.808C234.63 14.2013 234.751 13.6413 234.994 13.128C235.246 12.6147 235.587 12.2087 236.016 11.91C236.445 11.602 236.917 11.448 237.43 11.448C237.943 11.448 238.415 11.602 238.844 11.91C239.273 12.2087 239.609 12.6147 239.852 13.128C240.104 13.6413 240.23 14.2013 240.23 14.808C240.23 15.4147 240.104 15.9747 239.852 16.488C239.609 17.0013 239.273 17.412 238.844 17.72C238.415 18.0187 237.943 18.168 237.43 18.168ZM237.43 17.832C237.99 17.832 238.391 17.5707 238.634 17.048C238.877 16.516 238.998 15.7693 238.998 14.808C238.998 13.8467 238.877 13.1047 238.634 12.582C238.391 12.05 237.99 11.784 237.43 11.784C236.87 11.784 236.469 12.05 236.226 12.582C235.983 13.1047 235.862 13.8467 235.862 14.808C235.862 15.7693 235.983 16.516 236.226 17.048C236.469 17.5707 236.87 17.832 237.43 17.832ZM244.123 18.168C243.442 18.168 242.957 17.958 242.667 17.538C242.387 17.118 242.247 16.614 242.247 16.026V12.26C242.247 12.148 242.224 12.0687 242.177 12.022C242.131 11.9753 242.051 11.952 241.939 11.952H241.351V11.616H243.255V16.292C243.255 16.7027 243.335 17.0527 243.493 17.342C243.661 17.6313 243.941 17.776 244.333 17.776C244.66 17.776 244.949 17.664 245.201 17.44C245.463 17.2067 245.663 16.894 245.803 16.502C245.953 16.1007 246.027 15.6573 246.027 15.172V12.26C246.027 12.148 246.004 12.0687 245.957 12.022C245.911 11.9753 245.831 11.952 245.719 11.952H245.131V11.616H247.035V17.356C247.035 17.468 247.059 17.5473 247.105 17.594C247.152 17.6407 247.231 17.664 247.343 17.664H247.931V18H246.027V16.852L245.971 16.838C245.757 17.286 245.491 17.622 245.173 17.846C244.856 18.0607 244.506 18.168 244.123 18.168ZM248.914 17.664H249.502C249.614 17.664 249.693 17.6407 249.74 17.594C249.787 17.5473 249.81 17.468 249.81 17.356V12.26C249.81 12.148 249.787 12.0687 249.74 12.022C249.693 11.9753 249.614 11.952 249.502 11.952H248.914V11.616H250.818V13.016L250.874 13.03C251.07 12.5447 251.322 12.162 251.63 11.882C251.947 11.5927 252.283 11.448 252.638 11.448C252.993 11.448 253.282 11.5507 253.506 11.756C253.73 11.9613 253.842 12.2413 253.842 12.596C253.842 12.8013 253.767 13.002 253.618 13.198C253.478 13.394 253.296 13.492 253.072 13.492C252.895 13.492 252.745 13.4453 252.624 13.352C252.503 13.2587 252.442 13.128 252.442 12.96C252.442 12.764 252.535 12.596 252.722 12.456C252.806 12.4 252.867 12.3487 252.904 12.302C252.951 12.2553 252.974 12.1947 252.974 12.12C252.974 12.036 252.932 11.9707 252.848 11.924C252.773 11.868 252.666 11.84 252.526 11.84C252.237 11.84 251.957 11.98 251.686 12.26C251.425 12.54 251.215 12.904 251.056 13.352C250.897 13.8 250.818 14.2667 250.818 14.752V17.356C250.818 17.468 250.841 17.5473 250.888 17.594C250.935 17.6407 251.014 17.664 251.126 17.664H251.714V18H248.914V17.664ZM260.82 17.552H262.164C262.416 17.552 262.542 17.426 262.542 17.174V8.816C262.542 8.68533 262.514 8.592 262.458 8.536C262.402 8.47067 262.304 8.438 262.164 8.438H261.66C261.072 8.438 260.563 8.73667 260.134 9.334C259.863 9.71667 259.681 10.1973 259.588 10.776C259.495 11.3453 259.448 11.7653 259.448 12.036H259.056L259.168 8.032H267.204L267.316 12.036H266.924C266.924 11.7653 266.877 11.3453 266.784 10.776C266.691 10.1973 266.509 9.71667 266.238 9.334C265.809 8.73667 265.3 8.438 264.712 8.438H264.208C264.068 8.438 263.97 8.47067 263.914 8.536C263.858 8.592 263.83 8.68533 263.83 8.816V17.174C263.83 17.426 263.956 17.552 264.208 17.552H265.552V18H260.82V17.552ZM270.641 18.168C269.773 18.168 269.073 17.874 268.541 17.286C268.018 16.698 267.757 15.8813 267.757 14.836C267.757 14.2387 267.874 13.6833 268.107 13.17C268.34 12.6473 268.662 12.232 269.073 11.924C269.493 11.6067 269.96 11.448 270.473 11.448C271.042 11.448 271.509 11.602 271.873 11.91C272.237 12.218 272.498 12.61 272.657 13.086C272.825 13.5527 272.909 14.0333 272.909 14.528C272.909 14.6307 272.876 14.7007 272.811 14.738C272.746 14.766 272.634 14.78 272.475 14.78H268.989C268.989 15.7133 269.12 16.4553 269.381 17.006C269.652 17.5567 270.09 17.832 270.697 17.832C271.126 17.832 271.528 17.6687 271.901 17.342C272.284 17.0153 272.526 16.5067 272.629 15.816H272.965C272.909 16.4973 272.671 17.062 272.251 17.51C271.84 17.9487 271.304 18.168 270.641 18.168ZM271.705 14.444C271.705 13.6973 271.607 13.0673 271.411 12.554C271.215 12.0407 270.893 11.784 270.445 11.784C269.969 11.784 269.605 12.0453 269.353 12.568C269.11 13.0813 268.989 13.7067 268.989 14.444H271.705ZM274.056 17.664H274.644C274.756 17.664 274.836 17.6407 274.882 17.594C274.929 17.5473 274.952 17.468 274.952 17.356V12.26C274.952 12.148 274.929 12.0687 274.882 12.022C274.836 11.9753 274.756 11.952 274.644 11.952H274.056V11.616H275.96V13.016L276.016 13.03C276.212 12.5447 276.464 12.162 276.772 11.882C277.09 11.5927 277.426 11.448 277.78 11.448C278.135 11.448 278.424 11.5507 278.648 11.756C278.872 11.9613 278.984 12.2413 278.984 12.596C278.984 12.8013 278.91 13.002 278.76 13.198C278.62 13.394 278.438 13.492 278.214 13.492C278.037 13.492 277.888 13.4453 277.766 13.352C277.645 13.2587 277.584 13.128 277.584 12.96C277.584 12.764 277.678 12.596 277.864 12.456C277.948 12.4 278.009 12.3487 278.046 12.302C278.093 12.2553 278.116 12.1947 278.116 12.12C278.116 12.036 278.074 11.9707 277.99 11.924C277.916 11.868 277.808 11.84 277.668 11.84C277.379 11.84 277.099 11.98 276.828 12.26C276.567 12.54 276.357 12.904 276.198 13.352C276.04 13.8 275.96 14.2667 275.96 14.752V17.356C275.96 17.468 275.984 17.5473 276.03 17.594C276.077 17.6407 276.156 17.664 276.268 17.664H276.856V18H274.056V17.664ZM279.799 17.664H280.387C280.499 17.664 280.578 17.6407 280.625 17.594C280.671 17.5473 280.695 17.468 280.695 17.356V12.26C280.695 12.148 280.671 12.0687 280.625 12.022C280.578 11.9753 280.499 11.952 280.387 11.952H279.799V11.616H281.703V12.736L281.759 12.75C281.955 12.3207 282.207 11.9987 282.515 11.784C282.832 11.56 283.168 11.448 283.523 11.448C284.073 11.448 284.479 11.5973 284.741 11.896C285.011 12.1947 285.193 12.5493 285.287 12.96H285.343C285.455 12.5867 285.674 12.2413 286.001 11.924C286.337 11.6067 286.724 11.448 287.163 11.448C287.844 11.448 288.325 11.6767 288.605 12.134C288.894 12.5913 289.039 13.128 289.039 13.744V17.356C289.039 17.468 289.062 17.5473 289.109 17.594C289.155 17.6407 289.235 17.664 289.347 17.664H289.935V18H287.135V17.664H287.723C287.835 17.664 287.914 17.6407 287.961 17.594C288.007 17.5473 288.031 17.468 288.031 17.356V13.254C288.031 12.8807 287.942 12.554 287.765 12.274C287.587 11.9847 287.331 11.84 286.995 11.84C286.715 11.84 286.449 11.952 286.197 12.176C285.954 12.3907 285.753 12.6893 285.595 13.072C285.445 13.4547 285.371 13.884 285.371 14.36V17.356C285.371 17.468 285.394 17.5473 285.441 17.594C285.487 17.6407 285.567 17.664 285.679 17.664H286.267V18H283.467V17.664H284.055C284.167 17.664 284.246 17.6407 284.293 17.594C284.339 17.5473 284.363 17.468 284.363 17.356V13.254C284.363 12.8807 284.274 12.554 284.097 12.274C283.919 11.9847 283.663 11.84 283.327 11.84C283.047 11.84 282.781 11.952 282.529 12.176C282.286 12.3907 282.085 12.6893 281.927 13.072C281.777 13.4547 281.703 13.884 281.703 14.36V17.356C281.703 17.468 281.726 17.5473 281.773 17.594C281.819 17.6407 281.899 17.664 282.011 17.664H282.599V18H279.799V17.664ZM291.222 15.396H291.474L291.992 16.502C292.496 17.3887 293.149 17.832 293.952 17.832C294.381 17.832 294.699 17.7293 294.904 17.524C295.119 17.3093 295.226 17.02 295.226 16.656C295.226 16.4413 295.142 16.25 294.974 16.082C294.815 15.9047 294.601 15.7647 294.33 15.662L292.734 15.018C292.23 14.8127 291.833 14.5653 291.544 14.276C291.255 13.9867 291.11 13.618 291.11 13.17C291.11 12.6007 291.287 12.1713 291.642 11.882C291.997 11.5927 292.445 11.448 292.986 11.448C293.257 11.448 293.509 11.4947 293.742 11.588C293.985 11.672 294.185 11.7747 294.344 11.896C294.549 12.0453 294.703 12.12 294.806 12.12C294.927 12.12 295.002 12.036 295.03 11.868L295.058 11.588H295.31V13.716H295.058L294.862 13.226C294.647 12.694 294.363 12.3207 294.008 12.106C293.663 11.8913 293.317 11.784 292.972 11.784C292.627 11.784 292.342 11.8727 292.118 12.05C291.894 12.218 291.782 12.456 291.782 12.764C291.782 13.0347 291.889 13.2587 292.104 13.436C292.328 13.604 292.631 13.7673 293.014 13.926L294.526 14.556C294.974 14.7427 295.31 14.9713 295.534 15.242C295.758 15.5033 295.87 15.872 295.87 16.348C295.87 16.9733 295.693 17.4353 295.338 17.734C294.983 18.0233 294.517 18.168 293.938 18.168C293.593 18.168 293.313 18.1213 293.098 18.028C292.883 17.9347 292.673 17.8087 292.468 17.65C292.384 17.5847 292.3 17.5287 292.216 17.482C292.132 17.4353 292.057 17.412 291.992 17.412C291.768 17.412 291.614 17.5707 291.53 17.888L291.474 18.168H291.222V15.396ZM302.84 18.168C302.345 18.168 301.916 18.0467 301.552 17.804C301.197 17.5613 301.02 17.132 301.02 16.516C301.02 16.04 301.141 15.6667 301.384 15.396C301.627 15.1253 301.907 14.934 302.224 14.822C302.551 14.7007 302.943 14.598 303.4 14.514L304.688 14.276V13.086C304.688 12.218 304.254 11.784 303.386 11.784C303.069 11.784 302.779 11.868 302.518 12.036C302.257 12.1947 302.126 12.3767 302.126 12.582C302.126 12.6753 302.14 12.7453 302.168 12.792C302.187 12.82 302.215 12.848 302.252 12.876C302.299 12.904 302.341 12.9227 302.378 12.932C302.546 12.9787 302.672 13.044 302.756 13.128C302.849 13.212 302.896 13.3287 302.896 13.478C302.896 13.674 302.835 13.814 302.714 13.898C302.602 13.982 302.457 14.024 302.28 14.024C302.075 14.024 301.888 13.9447 301.72 13.786C301.552 13.6273 301.468 13.3987 301.468 13.1C301.468 12.7547 301.561 12.456 301.748 12.204C301.944 11.952 302.191 11.7653 302.49 11.644C302.798 11.5133 303.111 11.448 303.428 11.448C304.044 11.448 304.576 11.6113 305.024 11.938C305.472 12.2553 305.696 12.7547 305.696 13.436V16.88C305.696 17.3467 305.841 17.58 306.13 17.58C306.363 17.58 306.531 17.4447 306.634 17.174C306.737 16.9033 306.788 16.572 306.788 16.18H307.04C307.04 16.74 306.956 17.2113 306.788 17.594C306.629 17.9767 306.34 18.168 305.92 18.168C305.519 18.168 305.215 18.0513 305.01 17.818C304.814 17.5753 304.707 17.244 304.688 16.824L304.618 16.796C304.478 17.1227 304.249 17.4353 303.932 17.734C303.624 18.0233 303.26 18.168 302.84 18.168ZM303.064 17.664C303.484 17.664 303.811 17.5007 304.044 17.174C304.287 16.838 304.501 16.4133 304.688 15.9V14.57L303.47 14.836C303.022 14.9293 302.695 15.116 302.49 15.396C302.294 15.6667 302.196 16.054 302.196 16.558C302.196 16.9873 302.285 17.2813 302.462 17.44C302.639 17.5893 302.84 17.664 303.064 17.664ZM307.826 17.664H308.414C308.526 17.664 308.605 17.6407 308.652 17.594C308.699 17.5473 308.722 17.468 308.722 17.356V12.26C308.722 12.148 308.699 12.0687 308.652 12.022C308.605 11.9753 308.526 11.952 308.414 11.952H307.826V11.616H309.73V12.764L309.786 12.778C310.001 12.33 310.267 11.9987 310.584 11.784C310.901 11.56 311.251 11.448 311.634 11.448C312.315 11.448 312.796 11.658 313.076 12.078C313.365 12.498 313.51 13.002 313.51 13.59V17.356C313.51 17.468 313.533 17.5473 313.58 17.594C313.627 17.6407 313.706 17.664 313.818 17.664H314.406V18H311.606V17.664H312.194C312.306 17.664 312.385 17.6407 312.432 17.594C312.479 17.5473 312.502 17.468 312.502 17.356V13.324C312.502 12.9133 312.418 12.5633 312.25 12.274C312.091 11.9847 311.816 11.84 311.424 11.84C311.097 11.84 310.803 11.9567 310.542 12.19C310.29 12.414 310.089 12.7267 309.94 13.128C309.8 13.52 309.73 13.9587 309.73 14.444V17.356C309.73 17.468 309.753 17.5473 309.8 17.594C309.847 17.6407 309.926 17.664 310.038 17.664H310.626V18H307.826V17.664ZM317.99 18.168C317.552 18.168 317.141 18.0233 316.758 17.734C316.385 17.4353 316.086 17.0293 315.862 16.516C315.638 16.0027 315.526 15.4333 315.526 14.808C315.526 14.1827 315.638 13.6133 315.862 13.1C316.086 12.5867 316.385 12.1853 316.758 11.896C317.141 11.5973 317.552 11.448 317.99 11.448C318.354 11.448 318.681 11.5693 318.97 11.812C319.26 12.0453 319.474 12.33 319.614 12.666L319.67 12.652V8.676C319.67 8.564 319.647 8.48467 319.6 8.438C319.554 8.39133 319.474 8.368 319.362 8.368H318.354V8.032H320.678V17.356C320.678 17.468 320.702 17.5473 320.748 17.594C320.795 17.6407 320.874 17.664 320.986 17.664H321.714V18H319.67V16.964L319.614 16.95C319.437 17.3233 319.208 17.622 318.928 17.846C318.658 18.0607 318.345 18.168 317.99 18.168ZM318.144 17.776C318.424 17.776 318.681 17.6733 318.914 17.468C319.148 17.2627 319.33 16.9827 319.46 16.628C319.6 16.264 319.67 15.872 319.67 15.452V14.164C319.67 13.744 319.6 13.3567 319.46 13.002C319.33 12.638 319.148 12.3533 318.914 12.148C318.681 11.9427 318.424 11.84 318.144 11.84C317.687 11.84 317.342 12.0967 317.108 12.61C316.875 13.1233 316.758 13.856 316.758 14.808C316.758 15.76 316.875 16.4927 317.108 17.006C317.342 17.5193 317.687 17.776 318.144 17.776ZM328.977 18.168C328.557 18.168 328.207 18.0187 327.927 17.72C327.656 17.4213 327.521 17.0153 327.521 16.502V12.008H326.485V11.616H326.793C327.213 11.616 327.539 11.392 327.773 10.944C328.015 10.4867 328.137 9.98267 328.137 9.432V8.928H328.529V11.616H330.265V12.008H328.529V16.572C328.529 16.852 328.585 17.0853 328.697 17.272C328.809 17.4587 329 17.552 329.271 17.552C329.933 17.552 330.265 16.992 330.265 15.872H330.517C330.517 16.4973 330.423 17.0387 330.237 17.496C330.059 17.944 329.639 18.168 328.977 18.168ZM331.379 17.664H332.163C332.275 17.664 332.355 17.6407 332.401 17.594C332.448 17.5473 332.471 17.468 332.471 17.356V8.676C332.471 8.564 332.448 8.48467 332.401 8.438C332.355 8.39133 332.275 8.368 332.163 8.368H331.379V8.032H333.479V12.764L333.535 12.778C333.75 12.33 334.016 11.9987 334.333 11.784C334.651 11.56 335.001 11.448 335.383 11.448C336.065 11.448 336.545 11.658 336.825 12.078C337.115 12.498 337.259 13.002 337.259 13.59V17.356C337.259 17.468 337.283 17.5473 337.329 17.594C337.376 17.6407 337.455 17.664 337.567 17.664H338.155V18H335.355V17.664H335.943C336.055 17.664 336.135 17.6407 336.181 17.594C336.228 17.5473 336.251 17.468 336.251 17.356V13.324C336.251 12.9133 336.167 12.5633 335.999 12.274C335.841 11.9847 335.565 11.84 335.173 11.84C334.847 11.84 334.553 11.9567 334.291 12.19C334.039 12.414 333.839 12.7267 333.689 13.128C333.549 13.52 333.479 13.9587 333.479 14.444V17.356C333.479 17.468 333.503 17.5473 333.549 17.594C333.596 17.6407 333.675 17.664 333.787 17.664H334.375V18H331.379V17.664ZM341.067 18.168C340.572 18.168 340.143 18.0467 339.779 17.804C339.424 17.5613 339.247 17.132 339.247 16.516C339.247 16.04 339.368 15.6667 339.611 15.396C339.853 15.1253 340.133 14.934 340.451 14.822C340.777 14.7007 341.169 14.598 341.627 14.514L342.915 14.276V13.086C342.915 12.218 342.481 11.784 341.613 11.784C341.295 11.784 341.006 11.868 340.745 12.036C340.483 12.1947 340.353 12.3767 340.353 12.582C340.353 12.6753 340.367 12.7453 340.395 12.792C340.413 12.82 340.441 12.848 340.479 12.876C340.525 12.904 340.567 12.9227 340.605 12.932C340.773 12.9787 340.899 13.044 340.983 13.128C341.076 13.212 341.123 13.3287 341.123 13.478C341.123 13.674 341.062 13.814 340.941 13.898C340.829 13.982 340.684 14.024 340.507 14.024C340.301 14.024 340.115 13.9447 339.947 13.786C339.779 13.6273 339.695 13.3987 339.695 13.1C339.695 12.7547 339.788 12.456 339.975 12.204C340.171 11.952 340.418 11.7653 340.717 11.644C341.025 11.5133 341.337 11.448 341.655 11.448C342.271 11.448 342.803 11.6113 343.251 11.938C343.699 12.2553 343.923 12.7547 343.923 13.436V16.88C343.923 17.3467 344.067 17.58 344.357 17.58C344.59 17.58 344.758 17.4447 344.861 17.174C344.963 16.9033 345.015 16.572 345.015 16.18H345.267C345.267 16.74 345.183 17.2113 345.015 17.594C344.856 17.9767 344.567 18.168 344.147 18.168C343.745 18.168 343.442 18.0513 343.237 17.818C343.041 17.5753 342.933 17.244 342.915 16.824L342.845 16.796C342.705 17.1227 342.476 17.4353 342.159 17.734C341.851 18.0233 341.487 18.168 341.067 18.168ZM341.291 17.664C341.711 17.664 342.037 17.5007 342.271 17.174C342.513 16.838 342.728 16.4133 342.915 15.9V14.57L341.697 14.836C341.249 14.9293 340.922 15.116 340.717 15.396C340.521 15.6667 340.423 16.054 340.423 16.558C340.423 16.9873 340.511 17.2813 340.689 17.44C340.866 17.5893 341.067 17.664 341.291 17.664ZM348.405 18.168C347.985 18.168 347.635 18.0187 347.355 17.72C347.084 17.4213 346.949 17.0153 346.949 16.502V12.008H345.913V11.616H346.221C346.641 11.616 346.967 11.392 347.201 10.944C347.443 10.4867 347.565 9.98267 347.565 9.432V8.928H347.957V11.616H349.693V12.008H347.957V16.572C347.957 16.852 348.013 17.0853 348.125 17.272C348.237 17.4587 348.428 17.552 348.699 17.552C349.361 17.552 349.693 16.992 349.693 15.872H349.945C349.945 16.4973 349.851 17.0387 349.665 17.496C349.487 17.944 349.067 18.168 348.405 18.168ZM356.215 21.332C355.851 21.332 355.552 21.2153 355.319 20.982C355.198 20.87 355.1 20.7347 355.025 20.576C354.96 20.4267 354.927 20.268 354.927 20.1C354.927 19.9787 354.946 19.862 354.983 19.75C355.03 19.6473 355.086 19.568 355.151 19.512C355.291 19.372 355.45 19.302 355.627 19.302C355.842 19.302 356 19.3673 356.103 19.498C356.215 19.638 356.271 19.8107 356.271 20.016C356.271 20.128 356.234 20.2587 356.159 20.408C356.103 20.5013 356.075 20.59 356.075 20.674C356.075 20.814 356.168 20.884 356.355 20.884C356.635 20.884 356.868 20.772 357.055 20.548C357.251 20.3333 357.396 20.0767 357.489 19.778L357.867 18.56L355.879 12.778C355.767 12.4793 355.66 12.2693 355.557 12.148C355.454 12.0173 355.286 11.952 355.053 11.952H354.591V11.616H357.755V11.952H357.307C357.195 11.952 357.092 11.9847 356.999 12.05C356.906 12.106 356.859 12.1853 356.859 12.288C356.859 12.4467 356.887 12.6007 356.943 12.75L358.399 17.048L359.561 13.212C359.598 13.1 359.631 12.974 359.659 12.834C359.696 12.694 359.715 12.582 359.715 12.498C359.715 12.3393 359.668 12.2087 359.575 12.106C359.482 12.0033 359.36 11.952 359.211 11.952H358.875V11.616H361.423V11.952H361.101C360.896 11.952 360.704 12.022 360.527 12.162C360.359 12.2927 360.228 12.498 360.135 12.778L357.881 19.946C357.778 20.2913 357.582 20.6087 357.293 20.898C357.004 21.1873 356.644 21.332 356.215 21.332ZM364.565 18.168C364.051 18.168 363.58 18.0187 363.151 17.72C362.721 17.412 362.381 17.0013 362.129 16.488C361.886 15.9747 361.765 15.4147 361.765 14.808C361.765 14.2013 361.886 13.6413 362.129 13.128C362.381 12.6147 362.721 12.2087 363.151 11.91C363.58 11.602 364.051 11.448 364.565 11.448C365.078 11.448 365.549 11.602 365.979 11.91C366.408 12.2087 366.744 12.6147 366.987 13.128C367.239 13.6413 367.365 14.2013 367.365 14.808C367.365 15.4147 367.239 15.9747 366.987 16.488C366.744 17.0013 366.408 17.412 365.979 17.72C365.549 18.0187 365.078 18.168 364.565 18.168ZM364.565 17.832C365.125 17.832 365.526 17.5707 365.769 17.048C366.011 16.516 366.133 15.7693 366.133 14.808C366.133 13.8467 366.011 13.1047 365.769 12.582C365.526 12.05 365.125 11.784 364.565 11.784C364.005 11.784 363.603 12.05 363.361 12.582C363.118 13.1047 362.997 13.8467 362.997 14.808C362.997 15.7693 363.118 16.516 363.361 17.048C363.603 17.5707 364.005 17.832 364.565 17.832ZM371.258 18.168C370.577 18.168 370.091 17.958 369.802 17.538C369.522 17.118 369.382 16.614 369.382 16.026V12.26C369.382 12.148 369.359 12.0687 369.312 12.022C369.265 11.9753 369.186 11.952 369.074 11.952H368.486V11.616H370.39V16.292C370.39 16.7027 370.469 17.0527 370.628 17.342C370.796 17.6313 371.076 17.776 371.468 17.776C371.795 17.776 372.084 17.664 372.336 17.44C372.597 17.2067 372.798 16.894 372.938 16.502C373.087 16.1007 373.162 15.6573 373.162 15.172V12.26C373.162 12.148 373.139 12.0687 373.092 12.022C373.045 11.9753 372.966 11.952 372.854 11.952H372.266V11.616H374.17V17.356C374.17 17.468 374.193 17.5473 374.24 17.594C374.287 17.6407 374.366 17.664 374.478 17.664H375.066V18H373.162V16.852L373.106 16.838C372.891 17.286 372.625 17.622 372.308 17.846C371.991 18.0607 371.641 18.168 371.258 18.168ZM379.832 17.664H380.616C380.728 17.664 380.808 17.6407 380.854 17.594C380.901 17.5473 380.924 17.468 380.924 17.356V8.676C380.924 8.564 380.901 8.48467 380.854 8.438C380.808 8.39133 380.728 8.368 380.616 8.368H379.832V8.032H381.932V12.764L381.988 12.778C382.203 12.33 382.469 11.9987 382.786 11.784C383.104 11.56 383.454 11.448 383.836 11.448C384.518 11.448 384.998 11.658 385.278 12.078C385.568 12.498 385.712 13.002 385.712 13.59V17.356C385.712 17.468 385.736 17.5473 385.782 17.594C385.829 17.6407 385.908 17.664 386.02 17.664H386.608V18H383.808V17.664H384.396C384.508 17.664 384.588 17.6407 384.634 17.594C384.681 17.5473 384.704 17.468 384.704 17.356V13.324C384.704 12.9133 384.62 12.5633 384.452 12.274C384.294 11.9847 384.018 11.84 383.626 11.84C383.3 11.84 383.006 11.9567 382.744 12.19C382.492 12.414 382.292 12.7267 382.142 13.128C382.002 13.52 381.932 13.9587 381.932 14.444V17.356C381.932 17.468 381.956 17.5473 382.002 17.594C382.049 17.6407 382.128 17.664 382.24 17.664H382.828V18H379.832V17.664ZM389.52 18.168C389.025 18.168 388.596 18.0467 388.232 17.804C387.877 17.5613 387.7 17.132 387.7 16.516C387.7 16.04 387.821 15.6667 388.064 15.396C388.306 15.1253 388.586 14.934 388.904 14.822C389.23 14.7007 389.622 14.598 390.08 14.514L391.368 14.276V13.086C391.368 12.218 390.934 11.784 390.066 11.784C389.748 11.784 389.459 11.868 389.198 12.036C388.936 12.1947 388.806 12.3767 388.806 12.582C388.806 12.6753 388.82 12.7453 388.848 12.792C388.866 12.82 388.894 12.848 388.932 12.876C388.978 12.904 389.02 12.9227 389.058 12.932C389.226 12.9787 389.352 13.044 389.436 13.128C389.529 13.212 389.576 13.3287 389.576 13.478C389.576 13.674 389.515 13.814 389.394 13.898C389.282 13.982 389.137 14.024 388.96 14.024C388.754 14.024 388.568 13.9447 388.4 13.786C388.232 13.6273 388.148 13.3987 388.148 13.1C388.148 12.7547 388.241 12.456 388.428 12.204C388.624 11.952 388.871 11.7653 389.17 11.644C389.478 11.5133 389.79 11.448 390.108 11.448C390.724 11.448 391.256 11.6113 391.704 11.938C392.152 12.2553 392.376 12.7547 392.376 13.436V16.88C392.376 17.3467 392.52 17.58 392.81 17.58C393.043 17.58 393.211 17.4447 393.314 17.174C393.416 16.9033 393.468 16.572 393.468 16.18H393.72C393.72 16.74 393.636 17.2113 393.468 17.594C393.309 17.9767 393.02 18.168 392.6 18.168C392.198 18.168 391.895 18.0513 391.69 17.818C391.494 17.5753 391.386 17.244 391.368 16.824L391.298 16.796C391.158 17.1227 390.929 17.4353 390.612 17.734C390.304 18.0233 389.94 18.168 389.52 18.168ZM389.744 17.664C390.164 17.664 390.49 17.5007 390.724 17.174C390.966 16.838 391.181 16.4133 391.368 15.9V14.57L390.15 14.836C389.702 14.9293 389.375 15.116 389.17 15.396C388.974 15.6667 388.876 16.054 388.876 16.558C388.876 16.9873 388.964 17.2813 389.142 17.44C389.319 17.5893 389.52 17.664 389.744 17.664ZM394.908 12.652C394.815 12.4093 394.717 12.232 394.614 12.12C394.521 12.008 394.376 11.952 394.18 11.952H393.774V11.616H396.798V11.952H396.406C396.294 11.952 396.192 11.9847 396.098 12.05C396.005 12.106 395.958 12.1853 395.958 12.288C395.958 12.4467 395.986 12.6007 396.042 12.75L397.61 16.53L398.744 13.212C398.782 13.1 398.814 12.974 398.842 12.834C398.88 12.694 398.898 12.582 398.898 12.498C398.898 12.3393 398.852 12.2087 398.758 12.106C398.665 12.0033 398.544 11.952 398.394 11.952H398.058V11.616H400.606V11.952H400.284C400.079 11.952 399.888 12.022 399.71 12.162C399.542 12.2927 399.412 12.498 399.318 12.778L397.47 18.168H397.218L394.908 12.652ZM403.832 18.168C402.964 18.168 402.264 17.874 401.732 17.286C401.21 16.698 400.948 15.8813 400.948 14.836C400.948 14.2387 401.065 13.6833 401.298 13.17C401.532 12.6473 401.854 12.232 402.264 11.924C402.684 11.6067 403.151 11.448 403.664 11.448C404.234 11.448 404.7 11.602 405.064 11.91C405.428 12.218 405.69 12.61 405.848 13.086C406.016 13.5527 406.1 14.0333 406.1 14.528C406.1 14.6307 406.068 14.7007 406.002 14.738C405.937 14.766 405.825 14.78 405.666 14.78H402.18C402.18 15.7133 402.311 16.4553 402.572 17.006C402.843 17.5567 403.282 17.832 403.888 17.832C404.318 17.832 404.719 17.6687 405.092 17.342C405.475 17.0153 405.718 16.5067 405.82 15.816H406.156C406.1 16.4973 405.862 17.062 405.442 17.51C405.032 17.9487 404.495 18.168 403.832 18.168ZM404.896 14.444C404.896 13.6973 404.798 13.0673 404.602 12.554C404.406 12.0407 404.084 11.784 403.636 11.784C403.16 11.784 402.796 12.0453 402.544 12.568C402.302 13.0813 402.18 13.7067 402.18 14.444H404.896ZM233.28 37.664H233.868C233.98 37.664 234.059 37.6407 234.106 37.594C234.153 37.5473 234.176 37.468 234.176 37.356V32.26C234.176 32.148 234.153 32.0687 234.106 32.022C234.059 31.9753 233.98 31.952 233.868 31.952H233.28V31.616H235.184V33.016L235.24 33.03C235.436 32.5447 235.688 32.162 235.996 31.882C236.313 31.5927 236.649 31.448 237.004 31.448C237.359 31.448 237.648 31.5507 237.872 31.756C238.096 31.9613 238.208 32.2413 238.208 32.596C238.208 32.8013 238.133 33.002 237.984 33.198C237.844 33.394 237.662 33.492 237.438 33.492C237.261 33.492 237.111 33.4453 236.99 33.352C236.869 33.2587 236.808 33.128 236.808 32.96C236.808 32.764 236.901 32.596 237.088 32.456C237.172 32.4 237.233 32.3487 237.27 32.302C237.317 32.2553 237.34 32.1947 237.34 32.12C237.34 32.036 237.298 31.9707 237.214 31.924C237.139 31.868 237.032 31.84 236.892 31.84C236.603 31.84 236.323 31.98 236.052 32.26C235.791 32.54 235.581 32.904 235.422 33.352C235.263 33.8 235.184 34.2667 235.184 34.752V37.356C235.184 37.468 235.207 37.5473 235.254 37.594C235.301 37.6407 235.38 37.664 235.492 37.664H236.08V38H233.28V37.664ZM242.046 38.168C241.178 38.168 240.478 37.874 239.946 37.286C239.424 36.698 239.162 35.8813 239.162 34.836C239.162 34.2387 239.279 33.6833 239.512 33.17C239.746 32.6473 240.068 32.232 240.478 31.924C240.898 31.6067 241.365 31.448 241.878 31.448C242.448 31.448 242.914 31.602 243.278 31.91C243.642 32.218 243.904 32.61 244.062 33.086C244.23 33.5527 244.314 34.0333 244.314 34.528C244.314 34.6307 244.282 34.7007 244.216 34.738C244.151 34.766 244.039 34.78 243.88 34.78H240.394C240.394 35.7133 240.525 36.4553 240.786 37.006C241.057 37.5567 241.496 37.832 242.102 37.832C242.532 37.832 242.933 37.6687 243.306 37.342C243.689 37.0153 243.932 36.5067 244.034 35.816H244.37C244.314 36.4973 244.076 37.062 243.656 37.51C243.246 37.9487 242.709 38.168 242.046 38.168ZM243.11 34.444C243.11 33.6973 243.012 33.0673 242.816 32.554C242.62 32.0407 242.298 31.784 241.85 31.784C241.374 31.784 241.01 32.0453 240.758 32.568C240.516 33.0813 240.394 33.7067 240.394 34.444H243.11ZM247.394 38.168C246.899 38.168 246.47 38.0467 246.106 37.804C245.751 37.5613 245.574 37.132 245.574 36.516C245.574 36.04 245.695 35.6667 245.938 35.396C246.18 35.1253 246.46 34.934 246.778 34.822C247.104 34.7007 247.496 34.598 247.954 34.514L249.242 34.276V33.086C249.242 32.218 248.808 31.784 247.94 31.784C247.622 31.784 247.333 31.868 247.072 32.036C246.81 32.1947 246.68 32.3767 246.68 32.582C246.68 32.6753 246.694 32.7453 246.722 32.792C246.74 32.82 246.768 32.848 246.806 32.876C246.852 32.904 246.894 32.9227 246.932 32.932C247.1 32.9787 247.226 33.044 247.31 33.128C247.403 33.212 247.45 33.3287 247.45 33.478C247.45 33.674 247.389 33.814 247.268 33.898C247.156 33.982 247.011 34.024 246.834 34.024C246.628 34.024 246.442 33.9447 246.274 33.786C246.106 33.6273 246.022 33.3987 246.022 33.1C246.022 32.7547 246.115 32.456 246.302 32.204C246.498 31.952 246.745 31.7653 247.044 31.644C247.352 31.5133 247.664 31.448 247.982 31.448C248.598 31.448 249.13 31.6113 249.578 31.938C250.026 32.2553 250.25 32.7547 250.25 33.436V36.88C250.25 37.3467 250.394 37.58 250.684 37.58C250.917 37.58 251.085 37.4447 251.188 37.174C251.29 36.9033 251.342 36.572 251.342 36.18H251.594C251.594 36.74 251.51 37.2113 251.342 37.594C251.183 37.9767 250.894 38.168 250.474 38.168C250.072 38.168 249.769 38.0513 249.564 37.818C249.368 37.5753 249.26 37.244 249.242 36.824L249.172 36.796C249.032 37.1227 248.803 37.4353 248.486 37.734C248.178 38.0233 247.814 38.168 247.394 38.168ZM247.618 37.664C248.038 37.664 248.364 37.5007 248.598 37.174C248.84 36.838 249.055 36.4133 249.242 35.9V34.57L248.024 34.836C247.576 34.9293 247.249 35.116 247.044 35.396C246.848 35.6667 246.75 36.054 246.75 36.558C246.75 36.9873 246.838 37.2813 247.016 37.44C247.193 37.5893 247.394 37.664 247.618 37.664ZM254.984 38.168C254.545 38.168 254.134 38.0233 253.752 37.734C253.378 37.4353 253.08 37.0293 252.856 36.516C252.632 36.0027 252.52 35.4333 252.52 34.808C252.52 34.1827 252.632 33.6133 252.856 33.1C253.08 32.5867 253.378 32.1853 253.752 31.896C254.134 31.5973 254.545 31.448 254.984 31.448C255.348 31.448 255.674 31.5693 255.964 31.812C256.253 32.0453 256.468 32.33 256.608 32.666L256.664 32.652V28.676C256.664 28.564 256.64 28.4847 256.594 28.438C256.547 28.3913 256.468 28.368 256.356 28.368H255.348V28.032H257.672V37.356C257.672 37.468 257.695 37.5473 257.742 37.594C257.788 37.6407 257.868 37.664 257.98 37.664H258.708V38H256.664V36.964L256.608 36.95C256.43 37.3233 256.202 37.622 255.922 37.846C255.651 38.0607 255.338 38.168 254.984 38.168ZM255.138 37.776C255.418 37.776 255.674 37.6733 255.908 37.468C256.141 37.2627 256.323 36.9827 256.454 36.628C256.594 36.264 256.664 35.872 256.664 35.452V34.164C256.664 33.744 256.594 33.3567 256.454 33.002C256.323 32.638 256.141 32.3533 255.908 32.148C255.674 31.9427 255.418 31.84 255.138 31.84C254.68 31.84 254.335 32.0967 254.102 32.61C253.868 33.1233 253.752 33.856 253.752 34.808C253.752 35.76 253.868 36.4927 254.102 37.006C254.335 37.5193 254.68 37.776 255.138 37.776ZM266.558 38.168C266.045 38.168 265.573 38.0187 265.144 37.72C264.715 37.412 264.374 37.0013 264.122 36.488C263.879 35.9747 263.758 35.4147 263.758 34.808C263.758 34.2013 263.879 33.6413 264.122 33.128C264.374 32.6147 264.715 32.2087 265.144 31.91C265.573 31.602 266.045 31.448 266.558 31.448C267.071 31.448 267.543 31.602 267.972 31.91C268.401 32.2087 268.737 32.6147 268.98 33.128C269.232 33.6413 269.358 34.2013 269.358 34.808C269.358 35.4147 269.232 35.9747 268.98 36.488C268.737 37.0013 268.401 37.412 267.972 37.72C267.543 38.0187 267.071 38.168 266.558 38.168ZM266.558 37.832C267.118 37.832 267.519 37.5707 267.762 37.048C268.005 36.516 268.126 35.7693 268.126 34.808C268.126 33.8467 268.005 33.1047 267.762 32.582C267.519 32.05 267.118 31.784 266.558 31.784C265.998 31.784 265.597 32.05 265.354 32.582C265.111 33.1047 264.99 33.8467 264.99 34.808C264.99 35.7693 265.111 36.516 265.354 37.048C265.597 37.5707 265.998 37.832 266.558 37.832ZM273.251 38.168C272.57 38.168 272.085 37.958 271.795 37.538C271.515 37.118 271.375 36.614 271.375 36.026V32.26C271.375 32.148 271.352 32.0687 271.305 32.022C271.259 31.9753 271.179 31.952 271.067 31.952H270.479V31.616H272.383V36.292C272.383 36.7027 272.463 37.0527 272.621 37.342C272.789 37.6313 273.069 37.776 273.461 37.776C273.788 37.776 274.077 37.664 274.329 37.44C274.591 37.2067 274.791 36.894 274.931 36.502C275.081 36.1007 275.155 35.6573 275.155 35.172V32.26C275.155 32.148 275.132 32.0687 275.085 32.022C275.039 31.9753 274.959 31.952 274.847 31.952H274.259V31.616H276.163V37.356C276.163 37.468 276.187 37.5473 276.233 37.594C276.28 37.6407 276.359 37.664 276.471 37.664H277.059V38H275.155V36.852L275.099 36.838C274.885 37.286 274.619 37.622 274.301 37.846C273.984 38.0607 273.634 38.168 273.251 38.168ZM278.042 37.664H278.63C278.742 37.664 278.821 37.6407 278.868 37.594C278.914 37.5473 278.938 37.468 278.938 37.356V32.26C278.938 32.148 278.914 32.0687 278.868 32.022C278.821 31.9753 278.742 31.952 278.63 31.952H278.042V31.616H279.946V33.016L280.002 33.03C280.198 32.5447 280.45 32.162 280.758 31.882C281.075 31.5927 281.411 31.448 281.766 31.448C282.12 31.448 282.41 31.5507 282.634 31.756C282.858 31.9613 282.97 32.2413 282.97 32.596C282.97 32.8013 282.895 33.002 282.746 33.198C282.606 33.394 282.424 33.492 282.2 33.492C282.022 33.492 281.873 33.4453 281.752 33.352C281.63 33.2587 281.57 33.128 281.57 32.96C281.57 32.764 281.663 32.596 281.85 32.456C281.934 32.4 281.994 32.3487 282.032 32.302C282.078 32.2553 282.102 32.1947 282.102 32.12C282.102 32.036 282.06 31.9707 281.976 31.924C281.901 31.868 281.794 31.84 281.654 31.84C281.364 31.84 281.084 31.98 280.814 32.26C280.552 32.54 280.342 32.904 280.184 33.352C280.025 33.8 279.946 34.2667 279.946 34.752V37.356C279.946 37.468 279.969 37.5473 280.016 37.594C280.062 37.6407 280.142 37.664 280.254 37.664H280.842V38H278.042V37.664Z" fill="#ACA592"/>
</svg>
