<svg width="1200" height="72" viewBox="0 0 1200 72" fill="none" xmlns="http://www.w3.org/2000/svg">
<path d="M1019.68 38.648H1020.47C1020.67 38.648 1020.77 38.549 1020.77 38.351V31.817C1020.77 31.7143 1020.75 31.641 1020.69 31.597C1020.65 31.5457 1020.58 31.52 1020.47 31.52H1019.68V31.168H1023.05V31.52H1022.08C1021.98 31.52 1021.9 31.5457 1021.85 31.597C1021.81 31.641 1021.78 31.7143 1021.78 31.817V38.351C1021.78 38.549 1021.88 38.648 1022.08 38.648H1023.19C1023.58 38.648 1023.93 38.56 1024.24 38.384C1024.54 38.208 1024.78 37.9513 1024.93 37.614C1025.05 37.3647 1025.14 37.1007 1025.21 36.822C1025.3 36.536 1025.35 36.294 1025.39 36.096C1025.43 35.898 1025.45 35.7733 1025.46 35.722H1025.73L1025.63 39H1019.68V38.648ZM1027.82 32.62C1027.66 32.62 1027.52 32.565 1027.41 32.455C1027.3 32.345 1027.25 32.2093 1027.25 32.048C1027.25 31.8793 1027.3 31.7437 1027.41 31.641C1027.52 31.531 1027.66 31.476 1027.82 31.476C1027.99 31.476 1028.13 31.531 1028.23 31.641C1028.34 31.7437 1028.39 31.8793 1028.39 32.048C1028.39 32.2093 1028.34 32.345 1028.23 32.455C1028.13 32.565 1027.99 32.62 1027.82 32.62ZM1026.79 38.736H1027.25C1027.34 38.736 1027.4 38.7177 1027.44 38.681C1027.47 38.6443 1027.49 38.582 1027.49 38.494V34.49C1027.49 34.402 1027.47 34.3397 1027.44 34.303C1027.4 34.2663 1027.34 34.248 1027.25 34.248H1026.79V33.984H1028.28V38.494C1028.28 38.582 1028.3 38.6443 1028.34 38.681C1028.37 38.7177 1028.44 38.736 1028.53 38.736H1028.99V39H1026.79V38.736ZM1032.02 39.132C1031.59 39.132 1031.21 39.0147 1030.88 38.78C1030.56 38.5453 1030.31 38.2263 1030.13 37.823C1029.95 37.4197 1029.86 36.976 1029.86 36.492C1029.86 36.008 1029.95 35.5643 1030.14 35.161C1030.32 34.7577 1030.57 34.4387 1030.9 34.204C1031.23 33.9693 1031.6 33.852 1032.02 33.852C1032.36 33.852 1032.65 33.9253 1032.9 34.072C1033.15 34.2113 1033.34 34.3947 1033.47 34.622C1033.6 34.842 1033.67 35.0657 1033.67 35.293C1033.67 35.5203 1033.61 35.7 1033.49 35.832C1033.37 35.9567 1033.23 36.019 1033.06 36.019C1032.92 36.019 1032.79 35.9713 1032.69 35.876C1032.59 35.7807 1032.55 35.667 1032.55 35.535C1032.55 35.403 1032.58 35.293 1032.66 35.205C1032.73 35.117 1032.82 35.0583 1032.92 35.029C1033.04 34.9923 1033.1 34.9263 1033.1 34.831C1033.1 34.743 1033.06 34.644 1032.97 34.534C1032.9 34.424 1032.78 34.3287 1032.62 34.248C1032.46 34.16 1032.26 34.116 1032.02 34.116C1031.56 34.116 1031.24 34.314 1031.07 34.71C1030.91 35.106 1030.83 35.7 1030.83 36.492C1030.83 37.284 1030.91 37.878 1031.07 38.274C1031.23 38.67 1031.55 38.868 1032.02 38.868C1032.47 38.868 1032.81 38.7103 1033.05 38.395C1033.29 38.0797 1033.44 37.7093 1033.49 37.284H1033.76C1033.73 37.5847 1033.66 37.878 1033.52 38.164C1033.39 38.4427 1033.2 38.6737 1032.94 38.857C1032.69 39.0403 1032.38 39.132 1032.02 39.132ZM1036.92 39.132C1036.24 39.132 1035.69 38.901 1035.27 38.439C1034.86 37.977 1034.65 37.3353 1034.65 36.514C1034.65 36.0447 1034.74 35.6083 1034.93 35.205C1035.11 34.7943 1035.36 34.468 1035.69 34.226C1036.02 33.9767 1036.38 33.852 1036.79 33.852C1037.23 33.852 1037.6 33.973 1037.89 34.215C1038.17 34.457 1038.38 34.765 1038.5 35.139C1038.64 35.5057 1038.7 35.8833 1038.7 36.272C1038.7 36.3527 1038.68 36.4077 1038.62 36.437C1038.57 36.459 1038.48 36.47 1038.36 36.47H1035.62C1035.62 37.2033 1035.72 37.7863 1035.93 38.219C1036.14 38.6517 1036.49 38.868 1036.96 38.868C1037.3 38.868 1037.62 38.7397 1037.91 38.483C1038.21 38.2263 1038.4 37.8267 1038.48 37.284H1038.75C1038.7 37.8193 1038.51 38.263 1038.18 38.615C1037.86 38.9597 1037.44 39.132 1036.92 39.132ZM1037.76 36.206C1037.76 35.6193 1037.68 35.1243 1037.52 34.721C1037.37 34.3177 1037.12 34.116 1036.77 34.116C1036.39 34.116 1036.11 34.3213 1035.91 34.732C1035.72 35.1353 1035.62 35.6267 1035.62 36.206H1037.76ZM1039.6 38.736H1040.06C1040.15 38.736 1040.21 38.7177 1040.25 38.681C1040.29 38.6443 1040.31 38.582 1040.31 38.494V34.49C1040.31 34.402 1040.29 34.3397 1040.25 34.303C1040.21 34.2663 1040.15 34.248 1040.06 34.248H1039.6V33.984H1041.1V34.886L1041.14 34.897C1041.31 34.545 1041.52 34.2847 1041.77 34.116C1042.02 33.94 1042.29 33.852 1042.59 33.852C1043.13 33.852 1043.51 34.017 1043.73 34.347C1043.95 34.677 1044.07 35.073 1044.07 35.535V38.494C1044.07 38.582 1044.09 38.6443 1044.12 38.681C1044.16 38.7177 1044.22 38.736 1044.31 38.736H1044.77V39H1042.57V38.736H1043.03C1043.12 38.736 1043.18 38.7177 1043.22 38.681C1043.26 38.6443 1043.28 38.582 1043.28 38.494V35.326C1043.28 35.0033 1043.21 34.7283 1043.08 34.501C1042.95 34.2737 1042.74 34.16 1042.43 34.16C1042.17 34.16 1041.94 34.2517 1041.74 34.435C1041.54 34.611 1041.38 34.8567 1041.26 35.172C1041.15 35.48 1041.1 35.8247 1041.1 36.206V38.494C1041.1 38.582 1041.12 38.6443 1041.15 38.681C1041.19 38.7177 1041.25 38.736 1041.34 38.736H1041.8V39H1039.6V38.736ZM1045.79 36.954H1045.98L1046.39 37.823C1046.79 38.5197 1047.3 38.868 1047.93 38.868C1048.27 38.868 1048.52 38.7873 1048.68 38.626C1048.85 38.4573 1048.93 38.23 1048.93 37.944C1048.93 37.7753 1048.87 37.625 1048.73 37.493C1048.61 37.3537 1048.44 37.2437 1048.23 37.163L1046.97 36.657C1046.58 36.4957 1046.27 36.3013 1046.04 36.074C1045.81 35.8467 1045.7 35.557 1045.7 35.205C1045.7 34.7577 1045.84 34.4203 1046.12 34.193C1046.39 33.9657 1046.75 33.852 1047.17 33.852C1047.38 33.852 1047.58 33.8887 1047.77 33.962C1047.96 34.028 1048.11 34.1087 1048.24 34.204C1048.4 34.3213 1048.52 34.38 1048.6 34.38C1048.7 34.38 1048.76 34.314 1048.78 34.182L1048.8 33.962H1049V35.634H1048.8L1048.65 35.249C1048.48 34.831 1048.25 34.5377 1047.97 34.369C1047.7 34.2003 1047.43 34.116 1047.16 34.116C1046.89 34.116 1046.67 34.1857 1046.49 34.325C1046.31 34.457 1046.23 34.644 1046.23 34.886C1046.23 35.0987 1046.31 35.2747 1046.48 35.414C1046.65 35.546 1046.89 35.6743 1047.19 35.799L1048.38 36.294C1048.73 36.4407 1049 36.6203 1049.17 36.833C1049.35 37.0383 1049.44 37.328 1049.44 37.702C1049.44 38.1933 1049.3 38.5563 1049.02 38.791C1048.74 39.0183 1048.37 39.132 1047.92 39.132C1047.65 39.132 1047.43 39.0953 1047.26 39.022C1047.09 38.9487 1046.93 38.8497 1046.76 38.725C1046.7 38.6737 1046.63 38.6297 1046.57 38.593C1046.5 38.5563 1046.44 38.538 1046.39 38.538C1046.21 38.538 1046.09 38.6627 1046.03 38.912L1045.98 39.132H1045.79V36.954ZM1052.69 39.132C1052.01 39.132 1051.46 38.901 1051.04 38.439C1050.63 37.977 1050.42 37.3353 1050.42 36.514C1050.42 36.0447 1050.51 35.6083 1050.7 35.205C1050.88 34.7943 1051.13 34.468 1051.46 34.226C1051.79 33.9767 1052.15 33.852 1052.56 33.852C1053 33.852 1053.37 33.973 1053.66 34.215C1053.94 34.457 1054.15 34.765 1054.27 35.139C1054.4 35.5057 1054.47 35.8833 1054.47 36.272C1054.47 36.3527 1054.44 36.4077 1054.39 36.437C1054.34 36.459 1054.25 36.47 1054.13 36.47H1051.39C1051.39 37.2033 1051.49 37.7863 1051.7 38.219C1051.91 38.6517 1052.26 38.868 1052.73 38.868C1053.07 38.868 1053.39 38.7397 1053.68 38.483C1053.98 38.2263 1054.17 37.8267 1054.25 37.284H1054.51C1054.47 37.8193 1054.28 38.263 1053.95 38.615C1053.63 38.9597 1053.21 39.132 1052.69 39.132ZM1053.52 36.206C1053.52 35.6193 1053.45 35.1243 1053.29 34.721C1053.14 34.3177 1052.89 34.116 1052.53 34.116C1052.16 34.116 1051.87 34.3213 1051.68 34.732C1051.49 35.1353 1051.39 35.6267 1051.39 36.206H1053.52ZM1055.61 36.954H1055.81L1056.22 37.823C1056.62 38.5197 1057.13 38.868 1057.76 38.868C1058.1 38.868 1058.35 38.7873 1058.51 38.626C1058.68 38.4573 1058.76 38.23 1058.76 37.944C1058.76 37.7753 1058.69 37.625 1058.56 37.493C1058.44 37.3537 1058.27 37.2437 1058.06 37.163L1056.8 36.657C1056.41 36.4957 1056.09 36.3013 1055.87 36.074C1055.64 35.8467 1055.53 35.557 1055.53 35.205C1055.53 34.7577 1055.67 34.4203 1055.94 34.193C1056.22 33.9657 1056.57 33.852 1057 33.852C1057.21 33.852 1057.41 33.8887 1057.59 33.962C1057.78 34.028 1057.94 34.1087 1058.07 34.204C1058.23 34.3213 1058.35 34.38 1058.43 34.38C1058.53 34.38 1058.58 34.314 1058.61 34.182L1058.63 33.962H1058.83V35.634H1058.63L1058.47 35.249C1058.31 34.831 1058.08 34.5377 1057.8 34.369C1057.53 34.2003 1057.26 34.116 1056.99 34.116C1056.72 34.116 1056.49 34.1857 1056.32 34.325C1056.14 34.457 1056.05 34.644 1056.05 34.886C1056.05 35.0987 1056.14 35.2747 1056.31 35.414C1056.48 35.546 1056.72 35.6743 1057.02 35.799L1058.21 36.294C1058.56 36.4407 1058.83 36.6203 1059 36.833C1059.18 37.0383 1059.27 37.328 1059.27 37.702C1059.27 38.1933 1059.13 38.5563 1058.85 38.791C1058.57 39.0183 1058.2 39.132 1057.75 39.132C1057.48 39.132 1057.26 39.0953 1057.09 39.022C1056.92 38.9487 1056.75 38.8497 1056.59 38.725C1056.53 38.6737 1056.46 38.6297 1056.4 38.593C1056.33 38.5563 1056.27 38.538 1056.22 38.538C1056.04 38.538 1055.92 38.6627 1055.86 38.912L1055.81 39.132H1055.61V36.954Z" fill="#FFAE2B"/>
<path d="M1145.68 38.648H1146.47C1146.67 38.648 1146.77 38.549 1146.77 38.351V31.817C1146.77 31.7143 1146.75 31.641 1146.69 31.597C1146.65 31.5457 1146.58 31.52 1146.47 31.52H1145.68V31.168H1148.87V31.52H1148.08C1147.98 31.52 1147.9 31.5457 1147.85 31.597C1147.81 31.641 1147.78 31.7143 1147.78 31.817V38.351C1147.78 38.549 1147.88 38.648 1148.08 38.648H1148.87V39H1145.68V38.648ZM1149.75 38.736H1150.21C1150.3 38.736 1150.36 38.7177 1150.4 38.681C1150.43 38.6443 1150.45 38.582 1150.45 38.494V34.49C1150.45 34.402 1150.43 34.3397 1150.4 34.303C1150.36 34.2663 1150.3 34.248 1150.21 34.248H1149.75V33.984H1151.24V34.886L1151.29 34.897C1151.46 34.545 1151.66 34.2847 1151.91 34.116C1152.16 33.94 1152.44 33.852 1152.74 33.852C1153.27 33.852 1153.65 34.017 1153.87 34.347C1154.1 34.677 1154.21 35.073 1154.21 35.535V38.494C1154.21 38.582 1154.23 38.6443 1154.27 38.681C1154.3 38.7177 1154.37 38.736 1154.46 38.736H1154.92V39H1152.72V38.736H1153.18C1153.27 38.736 1153.33 38.7177 1153.37 38.681C1153.4 38.6443 1153.42 38.582 1153.42 38.494V35.326C1153.42 35.0033 1153.36 34.7283 1153.22 34.501C1153.1 34.2737 1152.88 34.16 1152.57 34.16C1152.32 34.16 1152.09 34.2517 1151.88 34.435C1151.68 34.611 1151.53 34.8567 1151.41 35.172C1151.3 35.48 1151.24 35.8247 1151.24 36.206V38.494C1151.24 38.582 1151.26 38.6443 1151.3 38.681C1151.33 38.7177 1151.4 38.736 1151.49 38.736H1151.95V39H1149.75V38.736ZM1155.93 36.954H1156.13L1156.53 37.823C1156.93 38.5197 1157.44 38.868 1158.07 38.868C1158.41 38.868 1158.66 38.7873 1158.82 38.626C1158.99 38.4573 1159.08 38.23 1159.08 37.944C1159.08 37.7753 1159.01 37.625 1158.88 37.493C1158.75 37.3537 1158.58 37.2437 1158.37 37.163L1157.12 36.657C1156.72 36.4957 1156.41 36.3013 1156.18 36.074C1155.96 35.8467 1155.84 35.557 1155.84 35.205C1155.84 34.7577 1155.98 34.4203 1156.26 34.193C1156.54 33.9657 1156.89 33.852 1157.32 33.852C1157.53 33.852 1157.73 33.8887 1157.91 33.962C1158.1 34.028 1158.26 34.1087 1158.38 34.204C1158.54 34.3213 1158.66 34.38 1158.75 34.38C1158.84 34.38 1158.9 34.314 1158.92 34.182L1158.94 33.962H1159.14V35.634H1158.94L1158.79 35.249C1158.62 34.831 1158.4 34.5377 1158.12 34.369C1157.85 34.2003 1157.58 34.116 1157.3 34.116C1157.03 34.116 1156.81 34.1857 1156.63 34.325C1156.46 34.457 1156.37 34.644 1156.37 34.886C1156.37 35.0987 1156.45 35.2747 1156.62 35.414C1156.8 35.546 1157.04 35.6743 1157.34 35.799L1158.53 36.294C1158.88 36.4407 1159.14 36.6203 1159.32 36.833C1159.49 37.0383 1159.58 37.328 1159.58 37.702C1159.58 38.1933 1159.44 38.5563 1159.16 38.791C1158.88 39.0183 1158.52 39.132 1158.06 39.132C1157.79 39.132 1157.57 39.0953 1157.4 39.022C1157.23 38.9487 1157.07 38.8497 1156.91 38.725C1156.84 38.6737 1156.78 38.6297 1156.71 38.593C1156.64 38.5563 1156.59 38.538 1156.53 38.538C1156.36 38.538 1156.24 38.6627 1156.17 38.912L1156.13 39.132H1155.93V36.954ZM1162.31 39.132C1161.98 39.132 1161.7 39.0147 1161.48 38.78C1161.27 38.5453 1161.16 38.2263 1161.16 37.823V34.292H1160.35V33.984H1160.59C1160.92 33.984 1161.18 33.808 1161.36 33.456C1161.55 33.0967 1161.65 32.7007 1161.65 32.268V31.872H1161.95V33.984H1163.32V34.292H1161.95V37.878C1161.95 38.098 1162 38.2813 1162.09 38.428C1162.17 38.5747 1162.32 38.648 1162.54 38.648C1163.06 38.648 1163.32 38.208 1163.32 37.328H1163.52C1163.52 37.8193 1163.44 38.2447 1163.3 38.604C1163.16 38.956 1162.83 39.132 1162.31 39.132ZM1164.3 38.736H1164.76C1164.85 38.736 1164.92 38.7177 1164.95 38.681C1164.99 38.6443 1165.01 38.582 1165.01 38.494V34.49C1165.01 34.402 1164.99 34.3397 1164.95 34.303C1164.92 34.2663 1164.85 34.248 1164.76 34.248H1164.3V33.984H1165.8V35.084L1165.84 35.095C1166 34.7137 1166.19 34.413 1166.44 34.193C1166.69 33.9657 1166.95 33.852 1167.23 33.852C1167.51 33.852 1167.73 33.9327 1167.91 34.094C1168.09 34.2553 1168.17 34.4753 1168.17 34.754C1168.17 34.9153 1168.12 35.073 1168 35.227C1167.89 35.381 1167.75 35.458 1167.57 35.458C1167.43 35.458 1167.31 35.4213 1167.22 35.348C1167.12 35.2747 1167.07 35.172 1167.07 35.04C1167.07 34.886 1167.15 34.754 1167.29 34.644C1167.36 34.6 1167.41 34.5597 1167.44 34.523C1167.47 34.4863 1167.49 34.4387 1167.49 34.38C1167.49 34.314 1167.46 34.2627 1167.39 34.226C1167.34 34.182 1167.25 34.16 1167.14 34.16C1166.91 34.16 1166.69 34.27 1166.48 34.49C1166.28 34.71 1166.11 34.996 1165.99 35.348C1165.86 35.7 1165.8 36.0667 1165.8 36.448V38.494C1165.8 38.582 1165.82 38.6443 1165.85 38.681C1165.89 38.7177 1165.95 38.736 1166.04 38.736H1166.5V39H1164.3V38.736ZM1170.93 39.132C1170.39 39.132 1170.01 38.967 1169.78 38.637C1169.56 38.307 1169.45 37.911 1169.45 37.449V34.49C1169.45 34.402 1169.43 34.3397 1169.4 34.303C1169.36 34.2663 1169.3 34.248 1169.21 34.248H1168.75V33.984H1170.24V37.658C1170.24 37.9807 1170.31 38.2557 1170.43 38.483C1170.56 38.7103 1170.78 38.824 1171.09 38.824C1171.35 38.824 1171.58 38.736 1171.77 38.56C1171.98 38.3767 1172.14 38.131 1172.25 37.823C1172.36 37.5077 1172.42 37.1593 1172.42 36.778V34.49C1172.42 34.402 1172.4 34.3397 1172.37 34.303C1172.33 34.2663 1172.27 34.248 1172.18 34.248H1171.72V33.984H1173.21V38.494C1173.21 38.582 1173.23 38.6443 1173.27 38.681C1173.31 38.7177 1173.37 38.736 1173.46 38.736H1173.92V39H1172.42V38.098L1172.38 38.087C1172.21 38.439 1172 38.703 1171.75 38.879C1171.5 39.0477 1171.23 39.132 1170.93 39.132ZM1176.96 39.132C1176.53 39.132 1176.15 39.0147 1175.82 38.78C1175.5 38.5453 1175.25 38.2263 1175.06 37.823C1174.89 37.4197 1174.8 36.976 1174.8 36.492C1174.8 36.008 1174.89 35.5643 1175.08 35.161C1175.26 34.7577 1175.51 34.4387 1175.83 34.204C1176.16 33.9693 1176.54 33.852 1176.96 33.852C1177.29 33.852 1177.59 33.9253 1177.84 34.072C1178.09 34.2113 1178.28 34.3947 1178.41 34.622C1178.54 34.842 1178.61 35.0657 1178.61 35.293C1178.61 35.5203 1178.55 35.7 1178.43 35.832C1178.31 35.9567 1178.17 36.019 1178 36.019C1177.85 36.019 1177.73 35.9713 1177.63 35.876C1177.53 35.7807 1177.48 35.667 1177.48 35.535C1177.48 35.403 1177.52 35.293 1177.59 35.205C1177.67 35.117 1177.76 35.0583 1177.86 35.029C1177.98 34.9923 1178.03 34.9263 1178.03 34.831C1178.03 34.743 1177.99 34.644 1177.91 34.534C1177.84 34.424 1177.72 34.3287 1177.56 34.248C1177.4 34.16 1177.2 34.116 1176.96 34.116C1176.49 34.116 1176.18 34.314 1176.01 34.71C1175.85 35.106 1175.77 35.7 1175.77 36.492C1175.77 37.284 1175.85 37.878 1176.01 38.274C1176.17 38.67 1176.49 38.868 1176.96 38.868C1177.4 38.868 1177.75 38.7103 1177.99 38.395C1178.23 38.0797 1178.38 37.7093 1178.43 37.284H1178.69C1178.67 37.5847 1178.6 37.878 1178.46 38.164C1178.33 38.4427 1178.14 38.6737 1177.88 38.857C1177.62 39.0403 1177.32 39.132 1176.96 39.132ZM1181.33 39.132C1181 39.132 1180.72 39.0147 1180.5 38.78C1180.29 38.5453 1180.19 38.2263 1180.19 37.823V34.292H1179.37V33.984H1179.61C1179.94 33.984 1180.2 33.808 1180.38 33.456C1180.57 33.0967 1180.67 32.7007 1180.67 32.268V31.872H1180.98V33.984H1182.34V34.292H1180.98V37.878C1180.98 38.098 1181.02 38.2813 1181.11 38.428C1181.2 38.5747 1181.35 38.648 1181.56 38.648C1182.08 38.648 1182.34 38.208 1182.34 37.328H1182.54C1182.54 37.8193 1182.47 38.2447 1182.32 38.604C1182.18 38.956 1181.85 39.132 1181.33 39.132ZM1184.36 32.62C1184.2 32.62 1184.06 32.565 1183.95 32.455C1183.84 32.345 1183.79 32.2093 1183.79 32.048C1183.79 31.8793 1183.84 31.7437 1183.95 31.641C1184.06 31.531 1184.2 31.476 1184.36 31.476C1184.53 31.476 1184.67 31.531 1184.77 31.641C1184.88 31.7437 1184.93 31.8793 1184.93 32.048C1184.93 32.2093 1184.88 32.345 1184.77 32.455C1184.67 32.565 1184.53 32.62 1184.36 32.62ZM1183.33 38.736H1183.79C1183.88 38.736 1183.94 38.7177 1183.98 38.681C1184.01 38.6443 1184.03 38.582 1184.03 38.494V34.49C1184.03 34.402 1184.01 34.3397 1183.98 34.303C1183.94 34.2663 1183.88 34.248 1183.79 34.248H1183.33V33.984H1184.82V38.494C1184.82 38.582 1184.84 38.6443 1184.88 38.681C1184.91 38.7177 1184.98 38.736 1185.07 38.736H1185.53V39H1183.33V38.736ZM1188.6 39.132C1188.2 39.132 1187.83 39.0147 1187.49 38.78C1187.15 38.538 1186.89 38.2153 1186.69 37.812C1186.5 37.4087 1186.4 36.9687 1186.4 36.492C1186.4 36.0153 1186.5 35.5753 1186.69 35.172C1186.89 34.7687 1187.15 34.4497 1187.49 34.215C1187.83 33.973 1188.2 33.852 1188.6 33.852C1189.01 33.852 1189.38 33.973 1189.71 34.215C1190.05 34.4497 1190.31 34.7687 1190.51 35.172C1190.7 35.5753 1190.8 36.0153 1190.8 36.492C1190.8 36.9687 1190.7 37.4087 1190.51 37.812C1190.31 38.2153 1190.05 38.538 1189.71 38.78C1189.38 39.0147 1189.01 39.132 1188.6 39.132ZM1188.6 38.868C1189.04 38.868 1189.36 38.6627 1189.55 38.252C1189.74 37.834 1189.83 37.2473 1189.83 36.492C1189.83 35.7367 1189.74 35.1537 1189.55 34.743C1189.36 34.325 1189.04 34.116 1188.6 34.116C1188.16 34.116 1187.85 34.325 1187.66 34.743C1187.47 35.1537 1187.37 35.7367 1187.37 36.492C1187.37 37.2473 1187.47 37.834 1187.66 38.252C1187.85 38.6627 1188.16 38.868 1188.6 38.868ZM1191.75 38.736H1192.21C1192.3 38.736 1192.36 38.7177 1192.4 38.681C1192.43 38.6443 1192.45 38.582 1192.45 38.494V34.49C1192.45 34.402 1192.43 34.3397 1192.4 34.303C1192.36 34.2663 1192.3 34.248 1192.21 34.248H1191.75V33.984H1193.25V34.886L1193.29 34.897C1193.46 34.545 1193.67 34.2847 1193.92 34.116C1194.17 33.94 1194.44 33.852 1194.74 33.852C1195.28 33.852 1195.65 34.017 1195.87 34.347C1196.1 34.677 1196.22 35.073 1196.22 35.535V38.494C1196.22 38.582 1196.23 38.6443 1196.27 38.681C1196.31 38.7177 1196.37 38.736 1196.46 38.736H1196.92V39H1194.72V38.736H1195.18C1195.27 38.736 1195.33 38.7177 1195.37 38.681C1195.4 38.6443 1195.42 38.582 1195.42 38.494V35.326C1195.42 35.0033 1195.36 34.7283 1195.23 34.501C1195.1 34.2737 1194.88 34.16 1194.58 34.16C1194.32 34.16 1194.09 34.2517 1193.88 34.435C1193.69 34.611 1193.53 34.8567 1193.41 35.172C1193.3 35.48 1193.25 35.8247 1193.25 36.206V38.494C1193.25 38.582 1193.26 38.6443 1193.3 38.681C1193.34 38.7177 1193.4 38.736 1193.49 38.736H1193.95V39H1191.75V38.736Z" fill="#FFAE2B"/>
<path d="M1069.22 31.0469V42.8457H1068.2V31.0469H1069.22Z" fill="#4B4136"/>
<path d="M1139.22 31.0469V42.8457H1138.2V31.0469H1139.22Z" fill="#4B4136"/>
<path d="M1077.86 39.198C1077.55 39.198 1077.25 39.132 1076.95 39C1076.65 38.8607 1076.4 38.7103 1076.18 38.549C1075.87 38.3143 1075.69 38.197 1075.63 38.197C1075.48 38.197 1075.39 38.3547 1075.34 38.67L1075.3 39.11H1075.05L1074.97 35.634H1075.23C1075.28 36.1767 1075.43 36.6973 1075.68 37.196C1075.95 37.6873 1076.27 38.087 1076.66 38.395C1077.05 38.6957 1077.45 38.846 1077.86 38.846C1078.46 38.846 1078.9 38.6993 1079.17 38.406C1079.45 38.1127 1079.59 37.7607 1079.59 37.35C1079.59 36.9907 1079.48 36.7083 1079.27 36.503C1079.06 36.2977 1078.76 36.1143 1078.36 35.953L1076.68 35.282C1076.1 35.0473 1075.68 34.7467 1075.4 34.38C1075.13 34.006 1074.99 33.5587 1074.99 33.038C1074.99 32.334 1075.2 31.8133 1075.61 31.476C1076.02 31.1387 1076.53 30.97 1077.15 30.97C1077.63 30.97 1078.17 31.19 1078.75 31.63C1078.83 31.6813 1078.9 31.729 1078.97 31.773C1079.05 31.8097 1079.11 31.828 1079.17 31.828C1079.29 31.828 1079.37 31.74 1079.39 31.564L1079.43 31.168H1079.7L1079.81 34.028H1079.54C1079.43 33.5 1079.24 33.0307 1078.98 32.62C1078.73 32.2093 1078.44 31.8903 1078.1 31.663C1077.77 31.4357 1077.42 31.322 1077.06 31.322C1076.65 31.322 1076.31 31.4577 1076.05 31.729C1075.78 31.993 1075.65 32.3633 1075.65 32.84C1075.65 33.17 1075.73 33.4267 1075.9 33.61C1076.07 33.7933 1076.32 33.951 1076.65 34.083L1078.77 34.93C1079.27 35.128 1079.63 35.4103 1079.87 35.777C1080.12 36.1437 1080.25 36.5287 1080.25 36.932C1080.25 37.3207 1080.16 37.6873 1079.98 38.032C1079.82 38.3767 1079.55 38.659 1079.19 38.879C1078.84 39.0917 1078.4 39.198 1077.86 39.198ZM1083.09 39.132C1082.76 39.132 1082.48 39.0147 1082.26 38.78C1082.05 38.5453 1081.94 38.2263 1081.94 37.823V34.292H1081.13V33.984H1081.37C1081.7 33.984 1081.96 33.808 1082.14 33.456C1082.33 33.0967 1082.43 32.7007 1082.43 32.268V31.872H1082.74V33.984H1084.1V34.292H1082.74V37.878C1082.74 38.098 1082.78 38.2813 1082.87 38.428C1082.96 38.5747 1083.11 38.648 1083.32 38.648C1083.84 38.648 1084.1 38.208 1084.1 37.328H1084.3C1084.3 37.8193 1084.22 38.2447 1084.08 38.604C1083.94 38.956 1083.61 39.132 1083.09 39.132ZM1086.14 41.618C1085.85 41.618 1085.62 41.5263 1085.44 41.343C1085.34 41.255 1085.26 41.1487 1085.21 41.024C1085.15 40.9067 1085.13 40.782 1085.13 40.65C1085.13 40.5547 1085.14 40.463 1085.17 40.375C1085.21 40.2943 1085.25 40.232 1085.3 40.188C1085.41 40.078 1085.54 40.023 1085.68 40.023C1085.85 40.023 1085.97 40.0743 1086.05 40.177C1086.14 40.287 1086.18 40.4227 1086.18 40.584C1086.18 40.672 1086.16 40.7747 1086.1 40.892C1086.05 40.9653 1086.03 41.035 1086.03 41.101C1086.03 41.211 1086.1 41.266 1086.25 41.266C1086.47 41.266 1086.65 41.178 1086.8 41.002C1086.95 40.8333 1087.07 40.6317 1087.14 40.397L1087.44 39.44L1085.88 34.897C1085.79 34.6623 1085.7 34.4973 1085.62 34.402C1085.54 34.2993 1085.41 34.248 1085.23 34.248H1084.86V33.984H1087.35V34.248H1087C1086.91 34.248 1086.83 34.2737 1086.76 34.325C1086.68 34.369 1086.65 34.4313 1086.65 34.512C1086.65 34.6367 1086.67 34.7577 1086.71 34.875L1087.86 38.252L1088.77 35.238C1088.8 35.15 1088.82 35.051 1088.85 34.941C1088.88 34.831 1088.89 34.743 1088.89 34.677C1088.89 34.5523 1088.85 34.4497 1088.78 34.369C1088.71 34.2883 1088.61 34.248 1088.49 34.248H1088.23V33.984H1090.23V34.248H1089.98C1089.82 34.248 1089.67 34.303 1089.53 34.413C1089.4 34.5157 1089.29 34.677 1089.22 34.897L1087.45 40.529C1087.37 40.8003 1087.22 41.0497 1086.99 41.277C1086.76 41.5043 1086.48 41.618 1086.14 41.618ZM1090.81 38.736H1091.38C1091.47 38.736 1091.53 38.7177 1091.57 38.681C1091.6 38.6443 1091.62 38.582 1091.62 38.494V31.674C1091.62 31.586 1091.6 31.5237 1091.57 31.487C1091.53 31.4503 1091.47 31.432 1091.38 31.432H1090.81V31.168H1092.41V38.494C1092.41 38.582 1092.43 38.6443 1092.47 38.681C1092.51 38.7177 1092.57 38.736 1092.66 38.736H1093.23V39H1090.81V38.736ZM1096.26 39.132C1095.58 39.132 1095.03 38.901 1094.61 38.439C1094.2 37.977 1093.99 37.3353 1093.99 36.514C1093.99 36.0447 1094.08 35.6083 1094.27 35.205C1094.45 34.7943 1094.7 34.468 1095.03 34.226C1095.36 33.9767 1095.72 33.852 1096.13 33.852C1096.57 33.852 1096.94 33.973 1097.23 34.215C1097.51 34.457 1097.72 34.765 1097.84 35.139C1097.97 35.5057 1098.04 35.8833 1098.04 36.272C1098.04 36.3527 1098.02 36.4077 1097.96 36.437C1097.91 36.459 1097.82 36.47 1097.7 36.47H1094.96C1094.96 37.2033 1095.06 37.7863 1095.27 38.219C1095.48 38.6517 1095.83 38.868 1096.3 38.868C1096.64 38.868 1096.96 38.7397 1097.25 38.483C1097.55 38.2263 1097.74 37.8267 1097.82 37.284H1098.08C1098.04 37.8193 1097.85 38.263 1097.52 38.615C1097.2 38.9597 1096.78 39.132 1096.26 39.132ZM1097.09 36.206C1097.09 35.6193 1097.02 35.1243 1096.86 34.721C1096.71 34.3177 1096.46 34.116 1096.1 34.116C1095.73 34.116 1095.44 34.3213 1095.25 34.732C1095.06 35.1353 1094.96 35.6267 1094.96 36.206H1097.09ZM1105.46 39.198C1104.83 39.198 1104.28 39.0147 1103.81 38.648C1103.35 38.274 1102.99 37.7717 1102.74 37.141C1102.5 36.503 1102.38 35.7953 1102.38 35.018C1102.38 34.2773 1102.5 33.599 1102.75 32.983C1103 32.367 1103.36 31.8793 1103.82 31.52C1104.28 31.1533 1104.82 30.97 1105.44 30.97C1105.76 30.97 1106.06 31.0433 1106.35 31.19C1106.63 31.3367 1106.87 31.4943 1107.05 31.663C1107.23 31.8243 1107.35 31.905 1107.4 31.905C1107.46 31.905 1107.5 31.8867 1107.53 31.85C1107.55 31.8133 1107.58 31.7547 1107.61 31.674L1107.82 31.058H1108.1L1108.14 34.468H1107.83C1107.67 33.7713 1107.46 33.1883 1107.21 32.719C1106.95 32.2423 1106.67 31.8903 1106.36 31.663C1106.06 31.4357 1105.76 31.322 1105.46 31.322C1104.95 31.322 1104.56 31.476 1104.28 31.784C1104 32.0847 1103.81 32.5063 1103.7 33.049C1103.59 33.5917 1103.54 34.27 1103.54 35.084C1103.54 35.898 1103.59 36.5763 1103.7 37.119C1103.81 37.6617 1104 38.087 1104.28 38.395C1104.56 38.6957 1104.95 38.846 1105.46 38.846C1105.73 38.846 1105.99 38.7507 1106.24 38.56C1106.49 38.362 1106.69 38.1127 1106.84 37.812C1107 37.5113 1107.09 37.2143 1107.09 36.921V35.931C1107.09 35.8283 1107.06 35.755 1107.01 35.711C1106.96 35.6597 1106.89 35.634 1106.79 35.634H1105.57V35.282H1109.2V35.634H1108.39C1108.29 35.634 1108.21 35.6597 1108.16 35.711C1108.12 35.755 1108.1 35.8283 1108.1 35.931V39.143H1107.75V38.142C1107.75 38.0173 1107.73 37.9257 1107.7 37.867C1107.67 37.801 1107.62 37.768 1107.56 37.768C1107.48 37.768 1107.41 37.7973 1107.35 37.856C1107.29 37.9147 1107.23 37.9953 1107.17 38.098C1107 38.3693 1106.77 38.6223 1106.46 38.857C1106.15 39.0843 1105.82 39.198 1105.46 39.198ZM1112.05 39.132C1111.52 39.132 1111.14 38.967 1110.91 38.637C1110.69 38.307 1110.58 37.911 1110.58 37.449V34.49C1110.58 34.402 1110.56 34.3397 1110.53 34.303C1110.49 34.2663 1110.43 34.248 1110.34 34.248H1109.88V33.984H1111.37V37.658C1111.37 37.9807 1111.43 38.2557 1111.56 38.483C1111.69 38.7103 1111.91 38.824 1112.22 38.824C1112.48 38.824 1112.7 38.736 1112.9 38.56C1113.11 38.3767 1113.26 38.131 1113.37 37.823C1113.49 37.5077 1113.55 37.1593 1113.55 36.778V34.49C1113.55 34.402 1113.53 34.3397 1113.5 34.303C1113.46 34.2663 1113.4 34.248 1113.31 34.248H1112.85V33.984H1114.34V38.494C1114.34 38.582 1114.36 38.6443 1114.4 38.681C1114.43 38.7177 1114.5 38.736 1114.58 38.736H1115.05V39H1113.55V38.098L1113.51 38.087C1113.34 38.439 1113.13 38.703 1112.88 38.879C1112.63 39.0477 1112.36 39.132 1112.05 39.132ZM1116.85 32.62C1116.69 32.62 1116.56 32.565 1116.45 32.455C1116.34 32.345 1116.28 32.2093 1116.28 32.048C1116.28 31.8793 1116.34 31.7437 1116.45 31.641C1116.56 31.531 1116.69 31.476 1116.85 31.476C1117.02 31.476 1117.16 31.531 1117.26 31.641C1117.37 31.7437 1117.42 31.8793 1117.42 32.048C1117.42 32.2093 1117.37 32.345 1117.26 32.455C1117.16 32.565 1117.02 32.62 1116.85 32.62ZM1115.82 38.736H1116.28C1116.37 38.736 1116.43 38.7177 1116.47 38.681C1116.5 38.6443 1116.52 38.582 1116.52 38.494V34.49C1116.52 34.402 1116.5 34.3397 1116.47 34.303C1116.43 34.2663 1116.37 34.248 1116.28 34.248H1115.82V33.984H1117.31V38.494C1117.31 38.582 1117.33 38.6443 1117.37 38.681C1117.41 38.7177 1117.47 38.736 1117.56 38.736H1118.02V39H1115.82V38.736ZM1120.83 39.132C1120.48 39.132 1120.16 39.0183 1119.86 38.791C1119.57 38.5563 1119.33 38.2373 1119.16 37.834C1118.98 37.4307 1118.89 36.9833 1118.89 36.492C1118.89 36.0007 1118.98 35.5533 1119.16 35.15C1119.33 34.7467 1119.57 34.4313 1119.86 34.204C1120.16 33.9693 1120.48 33.852 1120.83 33.852C1121.12 33.852 1121.37 33.9473 1121.6 34.138C1121.83 34.3213 1122 34.545 1122.11 34.809L1122.15 34.798V31.674C1122.15 31.586 1122.13 31.5237 1122.09 31.487C1122.06 31.4503 1122 31.432 1121.91 31.432H1121.12V31.168H1122.94V38.494C1122.94 38.582 1122.96 38.6443 1123 38.681C1123.03 38.7177 1123.1 38.736 1123.18 38.736H1123.76V39H1122.15V38.186L1122.11 38.175C1121.97 38.4683 1121.79 38.703 1121.57 38.879C1121.35 39.0477 1121.11 39.132 1120.83 39.132ZM1120.95 38.824C1121.17 38.824 1121.37 38.7433 1121.56 38.582C1121.74 38.4207 1121.88 38.2007 1121.98 37.922C1122.09 37.636 1122.15 37.328 1122.15 36.998V35.986C1122.15 35.656 1122.09 35.3517 1121.98 35.073C1121.88 34.787 1121.74 34.5633 1121.56 34.402C1121.37 34.2407 1121.17 34.16 1120.95 34.16C1120.59 34.16 1120.32 34.3617 1120.14 34.765C1119.95 35.1683 1119.86 35.744 1119.86 36.492C1119.86 37.24 1119.95 37.8157 1120.14 38.219C1120.32 38.6223 1120.59 38.824 1120.95 38.824ZM1126.91 39.132C1126.22 39.132 1125.67 38.901 1125.26 38.439C1124.85 37.977 1124.64 37.3353 1124.64 36.514C1124.64 36.0447 1124.73 35.6083 1124.92 35.205C1125.1 34.7943 1125.35 34.468 1125.67 34.226C1126 33.9767 1126.37 33.852 1126.77 33.852C1127.22 33.852 1127.59 33.973 1127.87 34.215C1128.16 34.457 1128.37 34.765 1128.49 35.139C1128.62 35.5057 1128.69 35.8833 1128.69 36.272C1128.69 36.3527 1128.66 36.4077 1128.61 36.437C1128.56 36.459 1128.47 36.47 1128.35 36.47H1125.61C1125.61 37.2033 1125.71 37.7863 1125.92 38.219C1126.13 38.6517 1126.47 38.868 1126.95 38.868C1127.29 38.868 1127.6 38.7397 1127.9 38.483C1128.2 38.2263 1128.39 37.8267 1128.47 37.284H1128.73C1128.69 37.8193 1128.5 38.263 1128.17 38.615C1127.85 38.9597 1127.43 39.132 1126.91 39.132ZM1127.74 36.206C1127.74 35.6193 1127.67 35.1243 1127.51 34.721C1127.36 34.3177 1127.1 34.116 1126.75 34.116C1126.38 34.116 1126.09 34.3213 1125.89 34.732C1125.7 35.1353 1125.61 35.6267 1125.61 36.206H1127.74Z" fill="#FFAE2B"/>
<path d="M63.908 31.368C63.836 31.168 63.744 31.032 63.632 30.96C63.52 30.88 63.376 30.84 63.2 30.84H62.456V30.456H66.008V30.84H65.432C65.32 30.84 65.224 30.872 65.144 30.936C65.064 30.992 65.024 31.06 65.024 31.14C65.024 31.204 65.04 31.292 65.072 31.404L66.668 36.924L68.12 31.668L68 31.284C67.944 31.124 67.832 31.012 67.664 30.948C67.496 30.876 67.324 30.84 67.148 30.84H66.8V30.456H70.352V30.84H69.884C69.476 30.84 69.272 31.048 69.272 31.464C69.272 31.576 69.296 31.7 69.344 31.836L70.856 37.032L72.344 32.304C72.4 32.088 72.436 31.924 72.452 31.812C72.476 31.692 72.488 31.548 72.488 31.38C72.488 31.228 72.416 31.1 72.272 30.996C72.136 30.892 71.944 30.84 71.696 30.84H71.288V30.456H74.528V30.84H74.012C73.74 30.84 73.528 30.92 73.376 31.08C73.232 31.24 73.12 31.452 73.04 31.716L70.652 39.216H70.352L68.384 32.544L66.488 39.216H66.188L63.908 31.368ZM76.7199 39.144C75.9759 39.144 75.3759 38.892 74.9199 38.388C74.4719 37.884 74.2479 37.184 74.2479 36.288C74.2479 35.776 74.3479 35.3 74.5479 34.86C74.7479 34.412 75.0239 34.056 75.3759 33.792C75.7359 33.52 76.1359 33.384 76.5759 33.384C77.0639 33.384 77.4639 33.516 77.7759 33.78C78.0879 34.044 78.3119 34.38 78.4479 34.788C78.5919 35.188 78.6639 35.6 78.6639 36.024C78.6639 36.112 78.6359 36.172 78.5799 36.204C78.5239 36.228 78.4279 36.24 78.2919 36.24H75.3039C75.3039 37.04 75.4159 37.676 75.6399 38.148C75.8719 38.62 76.2479 38.856 76.7679 38.856C77.1359 38.856 77.4799 38.716 77.7999 38.436C78.1279 38.156 78.3359 37.72 78.4239 37.128H78.7119C78.6639 37.712 78.4599 38.196 78.0999 38.58C77.7479 38.956 77.2879 39.144 76.7199 39.144ZM77.6319 35.952C77.6319 35.312 77.5479 34.772 77.3799 34.332C77.2119 33.892 76.9359 33.672 76.5519 33.672C76.1439 33.672 75.8319 33.896 75.6159 34.344C75.4079 34.784 75.3039 35.32 75.3039 35.952H77.6319ZM82.6474 39.144C82.3274 39.144 82.0314 39.036 81.7594 38.82C81.4874 38.604 81.2714 38.32 81.1114 37.968H81.0634L80.5594 39H80.3434V31.008C80.3434 30.912 80.3234 30.844 80.2834 30.804C80.2434 30.764 80.1754 30.744 80.0794 30.744H79.4554V30.456H81.2074V34.416L81.2554 34.428C81.3754 34.14 81.5594 33.896 81.8074 33.696C82.0554 33.488 82.3354 33.384 82.6474 33.384C83.0234 33.384 83.3714 33.512 83.6914 33.768C84.0194 34.016 84.2794 34.36 84.4714 34.8C84.6634 35.24 84.7594 35.728 84.7594 36.264C84.7594 36.8 84.6634 37.288 84.4714 37.728C84.2794 38.168 84.0194 38.516 83.6914 38.772C83.3714 39.02 83.0234 39.144 82.6474 39.144ZM82.5154 38.808C82.9074 38.808 83.2034 38.588 83.4034 38.148C83.6034 37.708 83.7034 37.08 83.7034 36.264C83.7034 35.448 83.6034 34.82 83.4034 34.38C83.2034 33.94 82.9074 33.72 82.5154 33.72C82.2754 33.72 82.0554 33.808 81.8554 33.984C81.6554 34.16 81.4954 34.404 81.3754 34.716C81.2634 35.02 81.2074 35.352 81.2074 35.712V36.816C81.2074 37.176 81.2634 37.512 81.3754 37.824C81.4954 38.128 81.6554 38.368 81.8554 38.544C82.0554 38.72 82.2754 38.808 82.5154 38.808ZM85.668 38.712H86.292C86.388 38.712 86.456 38.692 86.496 38.652C86.536 38.612 86.556 38.544 86.556 38.448V33.864H85.668V33.528H86.556V33.096C86.556 32.504 86.676 32.004 86.916 31.596C87.164 31.18 87.476 30.872 87.852 30.672C88.236 30.464 88.628 30.36 89.028 30.36C89.244 30.36 89.464 30.392 89.688 30.456H90.54V38.448C90.54 38.544 90.56 38.612 90.6 38.652C90.64 38.692 90.708 38.712 90.804 38.712H91.428V39H88.908V38.712H89.412C89.508 38.712 89.576 38.692 89.616 38.652C89.656 38.612 89.676 38.544 89.676 38.448V33.864H87.42V38.448C87.42 38.544 87.44 38.612 87.48 38.652C87.52 38.692 87.588 38.712 87.684 38.712H88.188V39H85.668V38.712ZM89.676 33.528V32.316C89.596 32.308 89.532 32.26 89.484 32.172C89.436 32.076 89.412 31.968 89.412 31.848C89.412 31.696 89.476 31.548 89.604 31.404C89.668 31.34 89.7 31.248 89.7 31.128C89.7 31 89.64 30.888 89.52 30.792C89.408 30.696 89.204 30.648 88.908 30.648C88.7 30.648 88.48 30.72 88.248 30.864C88.016 31.008 87.82 31.24 87.66 31.56C87.5 31.872 87.42 32.272 87.42 32.76V33.528H89.676ZM94.6713 39.144C94.2313 39.144 93.8273 39.016 93.4593 38.76C93.0913 38.496 92.7993 38.144 92.5833 37.704C92.3753 37.264 92.2713 36.784 92.2713 36.264C92.2713 35.744 92.3753 35.264 92.5833 34.824C92.7993 34.384 93.0913 34.036 93.4593 33.78C93.8273 33.516 94.2313 33.384 94.6713 33.384C95.1113 33.384 95.5153 33.516 95.8833 33.78C96.2513 34.036 96.5393 34.384 96.7473 34.824C96.9633 35.264 97.0713 35.744 97.0713 36.264C97.0713 36.784 96.9633 37.264 96.7473 37.704C96.5393 38.144 96.2513 38.496 95.8833 38.76C95.5153 39.016 95.1113 39.144 94.6713 39.144ZM94.6713 38.856C95.1513 38.856 95.4953 38.632 95.7033 38.184C95.9113 37.728 96.0153 37.088 96.0153 36.264C96.0153 35.44 95.9113 34.804 95.7033 34.356C95.4953 33.9 95.1513 33.672 94.6713 33.672C94.1913 33.672 93.8473 33.9 93.6393 34.356C93.4313 34.804 93.3273 35.44 93.3273 36.264C93.3273 37.088 93.4313 37.728 93.6393 38.184C93.8473 38.632 94.1913 38.856 94.6713 38.856ZM98.6969 34.524C98.5849 34.26 98.4809 34.076 98.3849 33.972C98.2969 33.868 98.1529 33.816 97.9529 33.816H97.6769V33.528H100.269V33.816H99.8969C99.7849 33.816 99.6969 33.848 99.6329 33.912C99.5769 33.976 99.5489 34.056 99.5489 34.152C99.5489 34.256 99.5729 34.372 99.6209 34.5L100.965 37.74L101.781 35.136C101.805 35.064 101.825 34.988 101.841 34.908C101.857 34.828 101.865 34.76 101.865 34.704C101.865 34.56 101.813 34.376 101.709 34.152C101.661 34.04 101.605 33.956 101.541 33.9C101.485 33.844 101.405 33.816 101.301 33.816H100.941V33.528H103.533V33.816H103.053C102.821 33.816 102.705 33.936 102.705 34.176C102.705 34.264 102.737 34.392 102.801 34.56L103.917 37.74L104.889 34.896C104.921 34.8 104.949 34.692 104.973 34.572C105.005 34.452 105.021 34.356 105.021 34.284C105.021 33.972 104.877 33.816 104.589 33.816H104.301V33.528H106.485V33.816H106.209C106.033 33.816 105.869 33.876 105.717 33.996C105.573 34.108 105.461 34.284 105.381 34.524L103.749 39.144H103.533L102.093 35.208L100.845 39.144H100.629L98.6969 34.524Z" fill="#FFAE2B"/>
<path d="M0.744 38.616H1.608C1.824 38.616 1.932 38.508 1.932 38.292V31.164C1.932 31.052 1.904 30.972 1.848 30.924C1.8 30.868 1.72 30.84 1.608 30.84H0.744V30.456H4.752C5.312 30.456 5.808 30.552 6.24 30.744C6.68 30.928 7.02 31.192 7.26 31.536C7.508 31.872 7.632 32.256 7.632 32.688C7.632 33.128 7.508 33.52 7.26 33.864C7.02 34.208 6.68 34.48 6.24 34.68C5.808 34.872 5.312 34.968 4.752 34.968H3.036V38.292C3.036 38.404 3.06 38.488 3.108 38.544C3.156 38.592 3.24 38.616 3.36 38.616H4.416V39H0.744V38.616ZM4.908 34.584C5.34 34.584 5.688 34.4 5.952 34.032C6.224 33.656 6.36 33.208 6.36 32.688C6.36 32.168 6.228 31.732 5.964 31.38C5.7 31.02 5.348 30.84 4.908 30.84H3.36C3.248 30.84 3.164 30.868 3.108 30.924C3.06 30.972 3.036 31.052 3.036 31.164V34.584H4.908ZM10.5112 39.144C10.0712 39.144 9.66716 39.016 9.29916 38.76C8.93116 38.496 8.63916 38.144 8.42316 37.704C8.21516 37.264 8.11116 36.784 8.11116 36.264C8.11116 35.744 8.21516 35.264 8.42316 34.824C8.63916 34.384 8.93116 34.036 9.29916 33.78C9.66716 33.516 10.0712 33.384 10.5112 33.384C10.9512 33.384 11.3552 33.516 11.7232 33.78C12.0912 34.036 12.3792 34.384 12.5872 34.824C12.8032 35.264 12.9112 35.744 12.9112 36.264C12.9112 36.784 12.8032 37.264 12.5872 37.704C12.3792 38.144 12.0912 38.496 11.7232 38.76C11.3552 39.016 10.9512 39.144 10.5112 39.144ZM10.5112 38.856C10.9912 38.856 11.3352 38.632 11.5432 38.184C11.7512 37.728 11.8552 37.088 11.8552 36.264C11.8552 35.44 11.7512 34.804 11.5432 34.356C11.3352 33.9 10.9912 33.672 10.5112 33.672C10.0312 33.672 9.68716 33.9 9.47916 34.356C9.27116 34.804 9.16716 35.44 9.16716 36.264C9.16716 37.088 9.27116 37.728 9.47916 38.184C9.68716 38.632 10.0312 38.856 10.5112 38.856ZM14.5368 34.524C14.4248 34.26 14.3208 34.076 14.2248 33.972C14.1368 33.868 13.9928 33.816 13.7928 33.816H13.5168V33.528H16.1088V33.816H15.7368C15.6248 33.816 15.5368 33.848 15.4728 33.912C15.4168 33.976 15.3888 34.056 15.3888 34.152C15.3888 34.256 15.4128 34.372 15.4608 34.5L16.8048 37.74L17.6208 35.136C17.6448 35.064 17.6648 34.988 17.6808 34.908C17.6968 34.828 17.7048 34.76 17.7048 34.704C17.7048 34.56 17.6528 34.376 17.5488 34.152C17.5008 34.04 17.4448 33.956 17.3808 33.9C17.3248 33.844 17.2448 33.816 17.1408 33.816H16.7808V33.528H19.3728V33.816H18.8928C18.6608 33.816 18.5448 33.936 18.5448 34.176C18.5448 34.264 18.5768 34.392 18.6408 34.56L19.7568 37.74L20.7288 34.896C20.7608 34.8 20.7888 34.692 20.8128 34.572C20.8448 34.452 20.8608 34.356 20.8608 34.284C20.8608 33.972 20.7168 33.816 20.4288 33.816H20.1408V33.528H22.3248V33.816H22.0488C21.8728 33.816 21.7088 33.876 21.5568 33.996C21.4128 34.108 21.3008 34.284 21.2208 34.524L19.5888 39.144H19.3728L17.9328 35.208L16.6848 39.144H16.4688L14.5368 34.524ZM25.091 39.144C24.347 39.144 23.747 38.892 23.291 38.388C22.843 37.884 22.619 37.184 22.619 36.288C22.619 35.776 22.719 35.3 22.919 34.86C23.119 34.412 23.395 34.056 23.747 33.792C24.107 33.52 24.507 33.384 24.947 33.384C25.435 33.384 25.835 33.516 26.147 33.78C26.459 34.044 26.683 34.38 26.819 34.788C26.963 35.188 27.035 35.6 27.035 36.024C27.035 36.112 27.007 36.172 26.951 36.204C26.895 36.228 26.799 36.24 26.663 36.24H23.675C23.675 37.04 23.787 37.676 24.011 38.148C24.243 38.62 24.619 38.856 25.139 38.856C25.507 38.856 25.851 38.716 26.171 38.436C26.499 38.156 26.707 37.72 26.795 37.128H27.083C27.035 37.712 26.831 38.196 26.471 38.58C26.119 38.956 25.659 39.144 25.091 39.144ZM26.003 35.952C26.003 35.312 25.919 34.772 25.751 34.332C25.583 33.892 25.307 33.672 24.923 33.672C24.515 33.672 24.203 33.896 23.987 34.344C23.779 34.784 23.675 35.32 23.675 35.952H26.003ZM28.0185 38.712H28.5225C28.6185 38.712 28.6865 38.692 28.7265 38.652C28.7665 38.612 28.7865 38.544 28.7865 38.448V34.08C28.7865 33.984 28.7665 33.916 28.7265 33.876C28.6865 33.836 28.6185 33.816 28.5225 33.816H28.0185V33.528H29.6505V34.728L29.6985 34.74C29.8665 34.324 30.0825 33.996 30.3465 33.756C30.6185 33.508 30.9065 33.384 31.2105 33.384C31.5145 33.384 31.7625 33.472 31.9545 33.648C32.1465 33.824 32.2425 34.064 32.2425 34.368C32.2425 34.544 32.1785 34.716 32.0505 34.884C31.9305 35.052 31.7745 35.136 31.5825 35.136C31.4305 35.136 31.3025 35.096 31.1985 35.016C31.0945 34.936 31.0425 34.824 31.0425 34.68C31.0425 34.512 31.1225 34.368 31.2825 34.248C31.3545 34.2 31.4065 34.156 31.4385 34.116C31.4785 34.076 31.4985 34.024 31.4985 33.96C31.4985 33.888 31.4625 33.832 31.3905 33.792C31.3265 33.744 31.2345 33.72 31.1145 33.72C30.8665 33.72 30.6265 33.84 30.3945 34.08C30.1705 34.32 29.9905 34.632 29.8545 35.016C29.7185 35.4 29.6505 35.8 29.6505 36.216V38.448C29.6505 38.544 29.6705 38.612 29.7105 38.652C29.7505 38.692 29.8185 38.712 29.9145 38.712H30.4185V39H28.0185V38.712ZM35.5324 39.144C34.7884 39.144 34.1884 38.892 33.7324 38.388C33.2844 37.884 33.0604 37.184 33.0604 36.288C33.0604 35.776 33.1604 35.3 33.3604 34.86C33.5604 34.412 33.8364 34.056 34.1884 33.792C34.5484 33.52 34.9484 33.384 35.3884 33.384C35.8764 33.384 36.2764 33.516 36.5884 33.78C36.9004 34.044 37.1244 34.38 37.2604 34.788C37.4044 35.188 37.4764 35.6 37.4764 36.024C37.4764 36.112 37.4484 36.172 37.3924 36.204C37.3364 36.228 37.2404 36.24 37.1044 36.24H34.1164C34.1164 37.04 34.2284 37.676 34.4524 38.148C34.6844 38.62 35.0604 38.856 35.5804 38.856C35.9484 38.856 36.2924 38.716 36.6124 38.436C36.9404 38.156 37.1484 37.72 37.2364 37.128H37.5244C37.4764 37.712 37.2724 38.196 36.9124 38.58C36.5604 38.956 36.1004 39.144 35.5324 39.144ZM36.4444 35.952C36.4444 35.312 36.3604 34.772 36.1924 34.332C36.0244 33.892 35.7484 33.672 35.3644 33.672C34.9564 33.672 34.6444 33.896 34.4284 34.344C34.2204 34.784 34.1164 35.32 34.1164 35.952H36.4444ZM40.6919 39.144C40.3159 39.144 39.9639 39.02 39.6359 38.772C39.3159 38.516 39.0599 38.168 38.8679 37.728C38.6759 37.288 38.5799 36.8 38.5799 36.264C38.5799 35.728 38.6759 35.24 38.8679 34.8C39.0599 34.36 39.3159 34.016 39.6359 33.768C39.9639 33.512 40.3159 33.384 40.6919 33.384C41.0039 33.384 41.2839 33.488 41.5319 33.696C41.7799 33.896 41.9639 34.14 42.0839 34.428L42.1319 34.416V31.008C42.1319 30.912 42.1119 30.844 42.0719 30.804C42.0319 30.764 41.9639 30.744 41.8679 30.744H41.0039V30.456H42.9959V38.448C42.9959 38.544 43.0159 38.612 43.0559 38.652C43.0959 38.692 43.1639 38.712 43.2599 38.712H43.8839V39H42.1319V38.112L42.0839 38.1C41.9319 38.42 41.7359 38.676 41.4959 38.868C41.2639 39.052 40.9959 39.144 40.6919 39.144ZM40.8239 38.808C41.0639 38.808 41.2839 38.72 41.4839 38.544C41.6839 38.368 41.8399 38.128 41.9519 37.824C42.0719 37.512 42.1319 37.176 42.1319 36.816V35.712C42.1319 35.352 42.0719 35.02 41.9519 34.716C41.8399 34.404 41.6839 34.16 41.4839 33.984C41.2839 33.808 41.0639 33.72 40.8239 33.72C40.4319 33.72 40.1359 33.94 39.9359 34.38C39.7359 34.82 39.6359 35.448 39.6359 36.264C39.6359 37.08 39.7359 37.708 39.9359 38.148C40.1359 38.588 40.4319 38.808 40.8239 38.808ZM51.0927 39.144C50.7727 39.144 50.4767 39.036 50.2047 38.82C49.9327 38.604 49.7167 38.32 49.5567 37.968H49.5087L49.0047 39H48.7887V31.008C48.7887 30.912 48.7687 30.844 48.7287 30.804C48.6887 30.764 48.6207 30.744 48.5247 30.744H47.9007V30.456H49.6527V34.416L49.7007 34.428C49.8207 34.14 50.0047 33.896 50.2527 33.696C50.5007 33.488 50.7807 33.384 51.0927 33.384C51.4687 33.384 51.8167 33.512 52.1367 33.768C52.4647 34.016 52.7247 34.36 52.9167 34.8C53.1087 35.24 53.2047 35.728 53.2047 36.264C53.2047 36.8 53.1087 37.288 52.9167 37.728C52.7247 38.168 52.4647 38.516 52.1367 38.772C51.8167 39.02 51.4687 39.144 51.0927 39.144ZM50.9607 38.808C51.3527 38.808 51.6487 38.588 51.8487 38.148C52.0487 37.708 52.1487 37.08 52.1487 36.264C52.1487 35.448 52.0487 34.82 51.8487 34.38C51.6487 33.94 51.3527 33.72 50.9607 33.72C50.7207 33.72 50.5007 33.808 50.3007 33.984C50.1007 34.16 49.9407 34.404 49.8207 34.716C49.7087 35.02 49.6527 35.352 49.6527 35.712V36.816C49.6527 37.176 49.7087 37.512 49.8207 37.824C49.9407 38.128 50.1007 38.368 50.3007 38.544C50.5007 38.72 50.7207 38.808 50.9607 38.808ZM55.3853 41.856C55.0733 41.856 54.8173 41.756 54.6173 41.556C54.5133 41.46 54.4293 41.344 54.3653 41.208C54.3093 41.08 54.2813 40.944 54.2813 40.8C54.2813 40.696 54.2973 40.596 54.3293 40.5C54.3693 40.412 54.4173 40.344 54.4733 40.296C54.5933 40.176 54.7293 40.116 54.8813 40.116C55.0653 40.116 55.2013 40.172 55.2893 40.284C55.3853 40.404 55.4333 40.552 55.4333 40.728C55.4333 40.824 55.4013 40.936 55.3373 41.064C55.2893 41.144 55.2653 41.22 55.2653 41.292C55.2653 41.412 55.3453 41.472 55.5053 41.472C55.7453 41.472 55.9453 41.376 56.1053 41.184C56.2733 41 56.3973 40.78 56.4773 40.524L56.8013 39.48L55.0973 34.524C55.0013 34.268 54.9093 34.088 54.8213 33.984C54.7333 33.872 54.5893 33.816 54.3893 33.816H53.9933V33.528H56.7053V33.816H56.3213C56.2253 33.816 56.1373 33.844 56.0573 33.9C55.9773 33.948 55.9373 34.016 55.9373 34.104C55.9373 34.24 55.9613 34.372 56.0093 34.5L57.2573 38.184L58.2533 34.896C58.2853 34.8 58.3133 34.692 58.3373 34.572C58.3693 34.452 58.3853 34.356 58.3853 34.284C58.3853 34.148 58.3453 34.036 58.2653 33.948C58.1853 33.86 58.0813 33.816 57.9533 33.816H57.6653V33.528H59.8493V33.816H59.5733C59.3973 33.816 59.2333 33.876 59.0813 33.996C58.9373 34.108 58.8253 34.284 58.7453 34.524L56.8133 40.668C56.7253 40.964 56.5573 41.236 56.3093 41.484C56.0613 41.732 55.7533 41.856 55.3853 41.856Z" fill="#ACA592"/>
</svg>
